<?xml version="1.0" encoding="utf-8"?>
<!-- Generator: Adobe Illustrator 23.0.1, SVG Export Plug-In . SVG Version: 6.00 Build 0)  -->
<!DOCTYPE svg PUBLIC "-//W3C//DTD SVG 1.1//EN" "http://www.w3.org/Graphics/SVG/1.1/DTD/svg11.dtd" [
	<!ENTITY ns_extend "http://ns.adobe.com/Extensibility/1.0/">
	<!ENTITY ns_ai "http://ns.adobe.com/AdobeIllustrator/10.0/">
	<!ENTITY ns_graphs "http://ns.adobe.com/Graphs/1.0/">
	<!ENTITY ns_vars "http://ns.adobe.com/Variables/1.0/">
	<!ENTITY ns_imrep "http://ns.adobe.com/ImageReplacement/1.0/">
	<!ENTITY ns_sfw "http://ns.adobe.com/SaveForWeb/1.0/">
	<!ENTITY ns_custom "http://ns.adobe.com/GenericCustomNamespace/1.0/">
	<!ENTITY ns_adobe_xpath "http://ns.adobe.com/XPath/1.0/">
]>
<svg version="1.1" id="Layer_1" xmlns:x="&ns_extend;" xmlns:i="&ns_ai;" xmlns:graph="&ns_graphs;"
	 xmlns="http://www.w3.org/2000/svg" xmlns:xlink="http://www.w3.org/1999/xlink" x="0px" y="0px" viewBox="0 0 500 75.3"
	 style="enable-background:new 0 0 500 75.3;" xml:space="preserve">
<style type="text/css">
	.st0{fill:#FFFFFF;}
</style>
<metadata>
	<sfw  xmlns="&ns_sfw;">
		<slices></slices>
		<sliceSourceBounds  bottomLeftOrigin="true" height="66" width="433" x="33.5" y="-260.7"></sliceSourceBounds>
	</sfw>
</metadata>
<g>
	<path class="st0" d="M34.2,65.9c7,0,14,0,21,0c18.2,0,36.5,0,54.7,0c25.4,0,50.8,0,76.2,0c28.5,0,57,0,85.4,0c27.5,0,54.9,0,82.4,0
		c22.3,0,44.7,0,67,0c13.1,0,26.3,0,39.4,0c1.8,0,3.7,0,5.5,0c0.9,0,0.9-1.4,0-1.4c-7,0-14,0-21,0c-18.2,0-36.5,0-54.7,0
		c-25.4,0-50.8,0-76.2,0c-28.5,0-57,0-85.4,0c-27.5,0-54.9,0-82.4,0c-22.3,0-44.7,0-67,0c-13.1,0-26.3,0-39.4,0c-1.8,0-3.7,0-5.5,0
		C33.3,64.5,33.3,65.9,34.2,65.9L34.2,65.9z"/>
</g>
<g>
	<path class="st0" d="M256.4,62h208.3c0.6,0,1.1-0.5,1.1-1.1v0c0-0.6-0.5-1.1-1.1-1.1c-15.1,0-187.5,0.4-208.1-4.1
		c-0.7-0.1-1.3,0.4-1.3,1V61C255.3,61.6,255.8,62,256.4,62z"/>
	<circle class="st0" cx="250.2" cy="59.8" r="2.2"/>
	<path class="st0" d="M243.6,62H35.3c-0.6,0-1.1-0.5-1.1-1.1v0c0-0.6,0.5-1.1,1.1-1.1c15.1,0,187.5,0.4,208.1-4.1
		c0.7-0.1,1.3,0.4,1.3,1V61C244.7,61.6,244.2,62,243.6,62z"/>
</g>
<g>
	<g>
		<g>
			<path class="st0" d="M356.4,46.6c0,0-0.2,0.1-0.6,0.2c-0.2,0.1-0.4,0.1-0.7,0.2c-0.1,0-0.3,0.1-0.4,0.1c-0.2,0-0.3,0.1-0.5,0.1
				c-1.4,0.2-3.6,0.3-6.1,0.1c-2.6-0.2-5.6-0.8-9-1.6c-1.7-0.4-3.4-0.9-5.2-1.5c-0.9-0.3-1.8-0.6-2.7-0.9c-0.9-0.3-1.8-0.7-2.7-1.1
				c-1.8-0.7-3.6-1.5-5.3-2.2c-1.7-0.7-3.3-1.3-4.9-1.8c-3.2-1-6.2-1.6-8.7-1.7c-0.6,0-1.2,0-1.8,0c-0.6,0-1.1,0.1-1.6,0.1
				c-1,0.1-1.8,0.4-2.5,0.7c-0.6,0.3-1.1,0.6-1.4,0.8c-0.2,0.1-0.3,0.2-0.3,0.3c-0.1,0.1-0.1,0.1-0.1,0.1s0,0,0.1-0.1
				c0.1-0.1,0.2-0.2,0.3-0.3c0.3-0.3,0.7-0.6,1.3-1c0.6-0.4,1.5-0.7,2.5-1c0.5-0.1,1.1-0.2,1.6-0.3c0.6-0.1,1.2-0.1,1.9-0.2
				c2.6-0.1,5.7,0.3,9.1,1.1c1.7,0.4,3.4,1,5.2,1.6c1.8,0.6,3.5,1.4,5.3,2.1c0.9,0.4,1.8,0.7,2.7,1.1c0.9,0.3,1.7,0.7,2.6,1
				c1.7,0.6,3.4,1.2,5,1.7c3.2,1,6.1,1.8,8.6,2.2c2.5,0.5,4.6,0.6,6,0.6c0.2,0,0.3,0,0.5,0c0.2,0,0.3,0,0.4,0c0.3,0,0.5,0,0.7-0.1
				C356.3,46.7,356.4,46.6,356.4,46.6z"/>
		</g>
		<g>
			<path class="st0" d="M364.4,35.7c0.1-0.2,0.3-0.3,0.6-0.3c0.2,0,0.3,0,0.5,0c0.2,0,0.4,0.1,0.6,0.2c0.2,0.1,0.5,0.2,0.7,0.3
				c0.2,0.2,0.5,0.3,0.8,0.6c0.5,0.5,1,1.1,1.3,2c0.1,0.4,0.2,1,0.2,1.7c-0.1,0.7-0.3,1.4-0.6,2c-0.7,1.3-1.8,2.4-2.9,3.1
				c-0.6,0.4-1.2,0.7-1.7,0.9c-0.5,0.2-1.1,0.4-1.5,0.5c-0.9,0.2-1.5,0.2-1.5,0.1c0-0.1,0.5-0.4,1.2-0.8c0.3-0.2,0.7-0.5,1.1-0.9
				c0.4-0.3,0.8-0.7,1.2-1.2c0.4-0.4,0.7-0.9,1-1.4c0.3-0.5,0.5-1,0.6-1.4c0.1-0.4,0.1-0.8,0.1-1.1c0-0.3-0.1-0.5-0.1-0.7
				c-0.1-0.3-0.3-0.7-0.5-1c-0.1-0.2-0.2-0.3-0.3-0.5c-0.1-0.2-0.2-0.3-0.3-0.5c-0.1-0.2-0.2-0.3-0.3-0.5c-0.1-0.2-0.1-0.3-0.2-0.4
				C364.3,36.1,364.3,35.9,364.4,35.7z"/>
		</g>
		<g>
			<path class="st0" d="M373.7,45.9c-0.1,0.2-0.2,0.4-0.3,0.5c-0.1,0.2-0.3,0.3-0.5,0.4c-0.4,0.2-0.8,0.4-1.2,0.4
				c-0.2,0-0.6,0-1.1,0.1c-0.5,0.1-1.1,0.2-1.6,0.3c-0.1,0-0.3,0.1-0.4,0.1c-0.1,0-0.3,0.1-0.4,0.1c-0.2,0.1-0.5,0.2-0.7,0.3
				c-0.2,0.1-0.4,0.2-0.5,0.2c-0.1,0-0.2,0.1-0.3,0c0,0,0-0.1,0-0.3c0-0.1,0.1-0.3,0.2-0.6c0.1-0.2,0.2-0.5,0.4-0.7
				c0.1-0.1,0.2-0.3,0.3-0.4c0.1-0.1,0.2-0.3,0.3-0.4c0.5-0.5,1.1-1,1.7-1.4c0.6-0.4,1.2-0.6,1.6-0.6c0.8-0.1,1.6,0.1,2,0.5
				c0.2,0.2,0.4,0.4,0.5,0.6C373.8,45.5,373.8,45.7,373.7,45.9z"/>
		</g>
		<path class="st0" d="M385.9,40.9c0-0.3,0-0.5-0.1-0.7c0-0.2,0-0.5-0.1-0.7c-0.3-1.9-1.1-3.8-2.1-5.3c-1.1-1.5-2.4-2.7-3.9-3.6
			c-1.4-0.9-2.9-1.5-4.4-1.9c-1.5-0.4-2.9-0.6-4.2-0.7c-1.4-0.1-2.6-0.1-3.8,0c-0.3,0-0.6,0.1-0.9,0.1c-0.3,0-0.6,0.1-0.8,0.1
			c-0.3,0-0.5,0.1-0.8,0.1c-0.3,0.1-0.5,0.1-0.8,0.2c-0.2,0.1-0.5,0.1-0.7,0.2c-0.1,0-0.2,0.1-0.3,0.1c-0.1,0-0.2,0.1-0.3,0.1
			c-0.2,0.1-0.4,0.1-0.6,0.2c-0.2,0.1-0.4,0.1-0.6,0.2c-1.6,0.5-2.7,1.1-3.5,1.6c-0.2,0.1-0.4,0.2-0.5,0.3c-0.1,0.1-0.3,0.2-0.4,0.2
			c-0.2,0.1-0.3,0.2-0.3,0.2s0.1-0.1,0.3-0.2c0.1-0.1,0.2-0.1,0.4-0.2c0.1-0.1,0.3-0.2,0.5-0.3c0.8-0.4,2-0.9,3.5-1.3
			c0.2-0.1,0.4-0.1,0.6-0.2c0.2,0,0.4-0.1,0.6-0.1c0.1,0,0.2,0,0.3-0.1c0.1,0,0.2,0,0.3-0.1c0.2,0,0.5-0.1,0.7-0.1
			c0.2,0,0.5-0.1,0.8-0.1c0.3,0,0.5-0.1,0.8-0.1c0.3,0,0.5,0,0.8-0.1c0.3,0,0.6,0,0.8,0c1.1,0,2.4,0,3.7,0.2c1.3,0.2,2.6,0.5,4,0.9
			c1.3,0.5,2.7,1.1,4,1.9c1.3,0.9,2.4,2,3.3,3.3c0.9,1.3,1.4,2.9,1.6,4.6c0,0.2,0,0.4,0.1,0.6c0,0.2,0,0.4,0,0.6
			c0,0.4,0,0.9-0.1,1.3c0,0.4-0.1,0.8-0.2,1.3c-0.1,0.2-0.1,0.4-0.2,0.6c-0.1,0.2-0.1,0.4-0.2,0.6c-0.1,0.4-0.4,0.8-0.6,1.2
			c-0.1,0.2-0.2,0.4-0.3,0.6l-0.1,0.1l-0.1,0.1l-0.2,0.3c-0.5,0.7-1.2,1.4-1.9,2.1c-1.4,1.3-3.1,2.3-4.9,3.2c-1.8,0.9-3.8,1.5-5.8,2
			c-1,0.2-2.1,0.4-3.1,0.6c-1.1,0.1-2.1,0.2-3.2,0.2c-0.3,0-0.5,0-0.8,0c-0.3,0-0.5,0-0.8,0c-0.3,0-0.5,0-0.8-0.1
			c-0.3,0-0.5-0.1-0.8-0.1c-1.1-0.1-2.2-0.3-3.2-0.5c-0.5-0.1-1.1-0.2-1.6-0.3c-0.5-0.1-1-0.2-1.6-0.3c-0.5-0.1-1-0.2-1.5-0.3
			c-0.5-0.1-1-0.2-1.5-0.4c-4.1-1-7.9-2.2-11.6-3.5c-3.7-1.3-7.1-2.5-10.4-3.7c-3.3-1.2-6.3-2.2-9.1-3.1c-1.4-0.4-2.8-0.8-4-1.2
			c-1.3-0.4-2.5-0.7-3.7-0.9c-2.3-0.5-4.4-0.6-6-0.5c-0.8,0.1-1.6,0.2-2.2,0.4c-0.2,0.1-0.5,0.1-0.7,0.2c-0.1,0-0.1,0-0.2,0
			c-0.1,0-0.2,0-0.3,0.1c-0.1,0-0.2,0.1-0.3,0.1c-0.1,0-0.2,0.1-0.3,0.1c-0.2,0.1-0.3,0.1-0.5,0.2c-0.3,0.1-0.6,0.3-0.9,0.5
			c-0.3,0.2-0.6,0.4-0.8,0.6c-0.3,0.2-0.5,0.4-0.7,0.7c-0.9,0.9-1.5,2-1.7,3.1c-0.1,0.5-0.2,1.1-0.1,1.6c0,0.5,0.1,1,0.2,1.4
			c0.1,0.4,0.3,0.8,0.5,1.2c0.1,0.1,0.1,0.2,0.2,0.3c0,0,0.1,0.1,0.1,0.1l0.1,0.1c0.1,0.1,0.1,0.2,0.2,0.3l0.1,0.1l0.1,0.1
			c0.3,0.3,0.6,0.6,0.9,0.9c0.3,0.3,0.6,0.5,1,0.7c0.7,0.4,1.4,0.7,2.1,0.9c0.4,0.1,0.7,0.2,1.1,0.2c0.2,0,0.4,0,0.5,0.1
			c0.1,0,0.2,0,0.3,0c0.1,0,0.2,0,0.3,0c0.1,0,0.2,0,0.3,0c0.1,0,0.2,0,0.3,0l0.1,0l0.1,0c0.1,0,0.2,0,0.3,0c0.1,0,0.2,0,0.3,0
			l0.1,0l0.1,0c0.1,0,0.2,0,0.3,0c0.1,0,0.2,0,0.3-0.1c0.1,0,0.2,0,0.3-0.1c0.1,0,0.2,0,0.2-0.1c0.2-0.1,0.3-0.1,0.5-0.2
			c0.3-0.1,0.6-0.3,0.9-0.5c0.1,0,0.1-0.1,0.2-0.1l0.1-0.1l0.1-0.1c0.1-0.1,0.1-0.1,0.2-0.2c0.1-0.1,0.1-0.1,0.2-0.2l0.1-0.1
			c0,0,0.1-0.1,0.1-0.1c0.1-0.1,0.1-0.1,0.2-0.2c0-0.1,0.1-0.1,0.1-0.2l0.1-0.1c0,0,0-0.1,0.1-0.1c0-0.1,0.1-0.1,0.1-0.2
			c0-0.1,0.1-0.1,0.1-0.2l0-0.1l0-0.1c0-0.1,0.1-0.1,0.1-0.2c0-0.1,0-0.1,0.1-0.2c0,0,0-0.1,0-0.1l0-0.1c0-0.1,0-0.1,0-0.2
			c0-0.1,0-0.1,0-0.2c0,0,0-0.1,0-0.1l0-0.1c0-0.1,0-0.1,0-0.2c0-0.1,0-0.1,0-0.2l0-0.1c0,0,0-0.1,0-0.1c0-0.1,0-0.1,0-0.2
			c0-0.1,0-0.1,0-0.2c0-0.1-0.1-0.3-0.1-0.4c-0.1-0.5-0.4-0.9-0.6-1.3c-0.3-0.4-0.6-0.6-0.9-0.8c-0.3-0.2-0.6-0.3-0.9-0.4
			c0,0-0.1,0-0.1,0c0,0-0.1,0-0.1,0c-0.1,0-0.1,0-0.2,0c-0.1,0-0.3,0-0.4,0c-0.1,0-0.2,0-0.3,0c0,0-0.1,0-0.1,0
			c-0.6-0.2-1.4,0.1-1.7,0.7c-0.3,0.7,0,1.5,0.7,1.9c0.7,0.3,1.5,0,1.9-0.7c0.3-0.5,0.1-1.2-0.3-1.6c0,0,0.1,0,0.1,0
			c0.1,0,0.1,0,0.2,0.1c0,0,0.1,0,0.1,0c0,0,0.1,0,0.1,0c0.3,0.1,0.5,0.2,0.8,0.4c0.3,0.2,0.5,0.5,0.7,0.8c0.2,0.3,0.4,0.7,0.5,1.1
			c0,0.1,0,0.2,0.1,0.3c0,0.1,0,0.1,0,0.2c0,0.1,0,0.1,0,0.2c0,0,0,0.1,0,0.1l0,0.1c0,0.1,0,0.1,0,0.2c0,0.1,0,0.1,0,0.2l0,0.1
			c0,0,0,0.1,0,0.1c0,0.1,0,0.1,0,0.2c0,0.1,0,0.1,0,0.2l0,0.1c0,0,0,0.1,0,0.1c0,0.1,0,0.1-0.1,0.2c0,0.1,0,0.1-0.1,0.2l0,0.1
			l0,0.1c0,0.1-0.1,0.1-0.1,0.2c0,0.1-0.1,0.1-0.1,0.2c0,0,0,0.1-0.1,0.1l-0.1,0.1c0,0-0.1,0.1-0.1,0.2c0,0-0.1,0.1-0.1,0.1
			c0,0,0,0-0.1,0.1l-0.1,0.1c0,0-0.1,0.1-0.1,0.1c-0.1,0-0.1,0.1-0.2,0.1l-0.1,0.1l-0.1,0.1c-0.1,0-0.1,0.1-0.2,0.1
			c-0.9,0.6-2.2,0.9-3.4,0.8c-0.1,0-0.2,0-0.2,0c-0.1,0-0.2,0-0.2,0c-0.2,0-0.3,0-0.5-0.1c-0.3-0.1-0.6-0.1-1-0.2
			c-0.6-0.2-1.3-0.5-1.9-0.8c-0.3-0.2-0.6-0.4-0.8-0.6c-0.3-0.2-0.5-0.5-0.7-0.7l-0.1-0.1l-0.1-0.1c-0.1-0.1-0.1-0.1-0.1-0.2
			l-0.1-0.1c0,0,0-0.1-0.1-0.1c0-0.1-0.1-0.2-0.1-0.2c-0.2-0.3-0.3-0.6-0.4-1c-0.1-0.3-0.2-0.7-0.2-1.1c0-0.4,0-0.8,0.1-1.3
			c0.1-0.4,0.3-0.9,0.5-1.3c0.1-0.1,0.1-0.2,0.2-0.3c0.1-0.1,0.1-0.2,0.2-0.3c0.2-0.2,0.3-0.4,0.5-0.6c0.2-0.2,0.4-0.4,0.6-0.6
			c0.2-0.2,0.5-0.4,0.7-0.5c0.3-0.2,0.5-0.3,0.8-0.4c0.1-0.1,0.3-0.1,0.4-0.2c0.1,0,0.1-0.1,0.2-0.1c0.1,0,0.2,0,0.2-0.1
			c0.1,0,0.2,0,0.2-0.1c0.1,0,0.2,0,0.2-0.1c0.2,0,0.3-0.1,0.5-0.1c0.1,0,0.2,0,0.2-0.1c0.1,0,0.2,0,0.3,0c0.1,0,0.2,0,0.3,0
			c0.1,0,0.2,0,0.3,0c0.2,0,0.3,0,0.5-0.1c0.2,0,0.3,0,0.5,0c0.2,0,0.3,0,0.5,0c0.1,0,0.2,0,0.3,0c0.1,0,0.2,0,0.3,0
			c0.1,0,0.2,0,0.3,0c0.1,0,0.2,0,0.3,0c0.2,0,0.4,0,0.5,0.1c0.4,0,0.9,0.1,1.3,0.1c0.4,0.1,0.8,0.1,1.1,0.1c0.7,0,1.3,0.1,2,0.2
			c0.3,0,1.5,0.2,1.5,0.2c0,0,0,0,0,0c0.5,0.1,0.9,0.3,1.4,0.5c1.2,0.4,2.6,0.9,3.9,1.4c2.7,1,5.7,2.2,8.9,3.5
			c3.2,1.3,6.6,2.7,10.3,4.1c3.7,1.4,7.5,2.7,11.7,3.8c0.5,0.1,1,0.3,1.6,0.4c0.5,0.1,1.1,0.2,1.6,0.4c0.5,0.1,1.1,0.2,1.6,0.3
			c0.5,0.1,1.1,0.2,1.6,0.3c1.1,0.2,2.2,0.3,3.3,0.5c0.3,0,0.6,0.1,0.8,0.1c0.3,0,0.6,0,0.9,0.1c0.3,0,0.6,0,0.9,0
			c0.3,0,0.6,0,0.9,0c2.4,0,4.6-0.4,6.8-0.9c2.2-0.5,4.3-1.3,6.3-2.2c2-1,3.8-2.2,5.4-3.7c0.8-0.7,1.5-1.6,2.1-2.5L384,48l0.1-0.2
			l0.1-0.2c0.1-0.2,0.3-0.5,0.4-0.7c0.2-0.5,0.5-1,0.6-1.5c0.1-0.3,0.2-0.5,0.2-0.8c0.1-0.3,0.1-0.5,0.2-0.8c0.1-0.5,0.2-1,0.2-1.5
			C385.9,41.9,385.9,41.4,385.9,40.9z"/>
	</g>
	<path class="st0" d="M249.7,44.2l-2,4.3l0,0c0.8,1.1,2,6.7,2,6.7c0,0,0.1,0,0.1,0c0.2-1.2,1.2-5.8,1.9-6.7l0,0L249.7,44.2z"/>
	<g>
		<g>
			<g>
				<path class="st0" d="M265,13.8c0.3-0.1,0.5-0.4,0.6-0.8c0.1-0.4,0.1-1-0.2-1.6c-0.3-0.6-0.9-1.3-1.7-1.8
					c-0.8-0.5-1.9-0.7-2.9-0.7c-0.5,0-1.2,0.2-1.9,0.5c-0.7,0.3-1.4,0.7-2.1,1.3c-0.7,0.6-1.2,1.2-1.7,2c-0.5,0.7-0.8,1.5-1,2.3
					c-0.2,0.8-0.3,1.5-0.4,2.2c0,0.3,0,0.7,0,1c0,0.3,0,0.6,0.1,0.8c0,0.3,0.1,0.5,0.1,0.7c0,0.2,0.1,0.4,0.2,0.5
					c0.1,0.3,0.2,0.4,0.3,0.4c0.1,0,0.2-0.2,0.3-0.4c0.1-0.3,0.3-0.7,0.4-1.1c0.1-0.2,0.2-0.5,0.3-0.7c0.1-0.2,0.2-0.5,0.4-0.8
					c0.3-0.5,0.6-1,1-1.5c0.4-0.5,0.8-0.9,1.2-1.2c0.4-0.3,0.9-0.6,1.3-0.8c0.4-0.2,0.8-0.3,1.1-0.3c0.1,0,0.2,0,0.2,0
					c0.1,0,0.1,0,0.2,0c0.1,0,0.1,0,0.2,0c0.1,0,0.1,0,0.1,0c0.3,0,0.6,0,0.9-0.1c0.3,0,0.6,0,0.9,0C263.6,13.8,264.4,14.1,265,13.8
					z"/>
			</g>
			<path class="st0" d="M254.5,8.2c-1.9,4.2-2.4,10.2-2.4,11c0,0.1,0,0.1-0.1,0.1l-1.8,2.1c-0.2,0.3-0.7,0.3-0.9,0l-1.8-2.1
				c0,0-0.1,0-0.1-0.1c-0.1-0.8-0.5-6.3-2.4-11c0,0,3.8-6.8,4.6-8.2c0.1-0.1,0.3-0.1,0.3,0C250.7,1.4,254.5,8.2,254.5,8.2z"/>
			<g>
				<path class="st0" d="M234.2,13.8c-0.3-0.1-0.5-0.4-0.6-0.8c-0.1-0.4-0.1-1,0.2-1.6c0.3-0.6,0.9-1.3,1.7-1.8
					c0.8-0.5,1.9-0.7,2.9-0.7c0.5,0,1.2,0.2,1.9,0.5c0.7,0.3,1.4,0.7,2.1,1.3c0.7,0.6,1.2,1.2,1.7,2c0.5,0.7,0.8,1.5,1,2.3
					c0.2,0.8,0.3,1.5,0.4,2.2c0,0.3,0,0.7,0,1c0,0.3,0,0.6-0.1,0.8c0,0.3-0.1,0.5-0.1,0.7c0,0.2-0.1,0.4-0.2,0.5
					c-0.1,0.3-0.2,0.4-0.3,0.4c-0.1,0-0.2-0.2-0.3-0.4c-0.1-0.3-0.3-0.7-0.4-1.1c-0.1-0.2-0.2-0.5-0.3-0.7c-0.1-0.2-0.2-0.5-0.4-0.8
					c-0.3-0.5-0.6-1-1-1.5c-0.4-0.5-0.8-0.9-1.2-1.2c-0.4-0.3-0.9-0.6-1.3-0.8c-0.4-0.2-0.8-0.3-1.1-0.3c-0.1,0-0.2,0-0.2,0
					c-0.1,0-0.1,0-0.2,0c-0.1,0-0.1,0-0.2,0c-0.1,0-0.1,0-0.1,0c-0.3,0-0.6,0-0.9-0.1c-0.3,0-0.6,0-0.9,0
					C235.6,13.8,234.9,14.1,234.2,13.8z"/>
			</g>
		</g>
		<path class="st0" d="M249.7,22.1l-2.3,2.2l0,0c0.4,0.6,2.3,3.8,2.3,3.8l0,0l0,0c0,0,1.8-3.2,2.2-3.8l0,0L249.7,22.1z"/>
		<path class="st0" d="M239.9,19.5c0.2,0,0.3,0.1,0.5,0.1c0.6,0.2,1.2,0.4,1.7,0.5c0.5,0.1,1,0.3,1.3,0.4c0.5,0.1,0.8,0.2,1,0.2
			c0,0,0,0,0,0c-0.2-0.1-0.5-0.2-0.9-0.4c-0.2-0.1-0.5-0.2-0.8-0.3c0,0-0.1-0.1-0.1-0.1c0,0-0.1-0.1-0.2-0.1c0.1,0,0.1,0,0.2,0
			c0.7,0.2,1.3,0.4,1.8,0.8c0,0,0,0,0,0c0-0.1,0.1-0.2,0.1-0.3c-0.5-0.4-1.2-0.6-1.9-0.8c-0.4-0.1-0.8-0.2-1.2-0.3
			c-0.6-0.4-1.4-0.8-2.4-1.3c-0.2-0.1-0.3-0.1-0.5-0.2c-0.2-0.1-0.3-0.1-0.5-0.2c-0.3-0.1-0.7-0.3-1.1-0.4c-0.7-0.3-1.5-0.5-2.4-0.7
			c-0.9-0.2-1.8-0.4-2.7-0.5c-0.5,0-1-0.1-1.5-0.1c-0.2,0-0.5,0-0.7,0c-0.3,0-0.5,0-0.8,0c-2.7,0.2-5.2,0.9-7.3,1.6
			c-2.1,0.7-3.7,1.4-4.8,2c-0.6,0.2-1.3,0.4-2.1,0.8c-0.8,0.3-1.7,0.7-2.7,1.1c-1,0.5-2.1,1-3.2,1.5c-1.1,0.6-2.3,1.2-3.4,1.9
			c-0.9,0.5-1.7,1-2.5,1.5c-0.8,0.5-1.6,1.1-2.2,1.6c-0.7,0.5-1.3,1.1-1.9,1.5c-0.6,0.5-1.2,0.9-1.7,1.3c-1.1,0.7-2,1.2-2.7,1.5
			c-0.2,0.1-0.3,0.1-0.4,0.2c-0.1,0-0.2,0.1-0.3,0.1c-0.2,0.1-0.3,0.1-0.3,0.1s0.1,0,0.3-0.1c0.1,0,0.2,0,0.4-0.1
			c0.1,0,0.3-0.1,0.5-0.1c0.7-0.2,1.7-0.6,2.9-1.2c0.6-0.3,1.2-0.7,1.8-1.2c0.6-0.4,1.3-0.9,2-1.4c0.7-0.5,1.4-1,2.2-1.5
			c0.8-0.5,1.7-1,2.5-1.5c1.2-0.7,2.3-1.3,3.4-2c1.1-0.6,2.1-1.2,3.1-1.7c1-0.5,1.8-0.9,2.6-1.3c0.8-0.4,1.5-0.7,2-1
			c1.2-0.4,2.9-0.9,5-1.5c2.1-0.5,4.5-1.1,7.2-1.3c0.2,0,0.5,0,0.7,0c0.2,0,0.5,0,0.7,0c0.5,0,0.9,0,1.4,0c0.9,0.1,1.8,0.2,2.6,0.3
			c0.8,0.2,1.6,0.3,2.4,0.5c0.4,0.1,0.7,0.2,1.1,0.3c0.2,0.1,0.3,0.1,0.5,0.2c0.2,0.1,0.3,0.1,0.5,0.2c0.7,0.2,1.3,0.5,1.8,0.7
			c-0.2,0-0.5-0.1-0.7-0.1c-1.2-0.4-2.6-0.9-4.2-1c-0.2,0-0.5,0-0.7-0.1c-0.2,0-0.5,0-0.7,0c-0.5,0-1,0-1.4,0c-1,0-2,0.1-3,0.3
			c-2.8,0.4-5.3,1.3-7.4,2.1c-1.1,0.4-2,0.8-2.8,1.1c-0.4,0.2-0.8,0.3-1.2,0.5c-0.4,0.2-0.7,0.3-1,0.4c-0.3,0.1-0.6,0.2-1,0.3
			c-0.4,0.1-0.8,0.3-1.2,0.5c-0.9,0.3-1.8,0.7-2.8,1.2c-2,0.9-4.4,2.2-6.8,3.5c-1.8,1-3.5,1.9-5.1,2.7c-1.6,0.7-3.1,1.3-4.4,1.7
			c-0.6,0.2-1.2,0.4-1.7,0.5c-0.5,0.1-1,0.2-1.3,0.4c-0.1,0.1-0.2,0.1-0.3,0.2c-0.1,0-0.3,0-0.4,0c-0.3,0-0.7,0-1,0.1l-0.5,0l-0.5,0
			c-0.3,0-0.7,0-1,0c-1.3,0-2.6,0-3.9-0.2c-0.2,0-0.3,0-0.5-0.1c-0.2,0-0.3,0-0.5-0.1c-0.3-0.1-0.6-0.1-0.9-0.2
			c-0.3-0.1-0.6-0.1-0.9-0.2c-0.2,0-0.3-0.1-0.4-0.1c-0.1,0-0.3-0.1-0.4-0.1c-0.1,0-0.3-0.1-0.4-0.1c-0.1-0.1-0.3-0.1-0.4-0.2
			c-0.3-0.1-0.6-0.2-0.8-0.3c-0.3-0.1-0.6-0.2-0.8-0.4c-0.3-0.1-0.5-0.3-0.8-0.4c-0.1-0.1-0.3-0.1-0.4-0.2c-0.1-0.1-0.3-0.1-0.4-0.2
			c-0.1-0.1-0.3-0.1-0.4-0.2c-0.1-0.1-0.2-0.2-0.4-0.2c-0.2-0.2-0.5-0.3-0.7-0.5c-0.1-0.1-0.2-0.2-0.3-0.2c-0.1-0.1-0.2-0.2-0.3-0.2
			c-0.1-0.1-0.2-0.2-0.3-0.3c-0.1-0.1-0.2-0.2-0.3-0.3c-0.2-0.2-0.4-0.4-0.6-0.6c-0.4-0.4-0.7-0.8-1.1-1.2c-0.3-0.4-0.6-0.8-0.9-1.3
			c-0.3-0.4-0.5-0.9-0.7-1.3c-0.2-0.4-0.4-0.9-0.5-1.4c-0.1-0.2-0.1-0.5-0.2-0.7c0-0.2-0.1-0.4-0.1-0.7c-0.1-0.9-0.1-1.7,0-2.5
			c0.1-0.8,0.3-1.5,0.6-2.2c0.3-0.7,0.6-1.2,1-1.8c0.4-0.5,0.8-1,1.2-1.4c0.1-0.1,0.2-0.2,0.3-0.3c0.1-0.1,0.1-0.1,0.2-0.1l0.2-0.1
			c0.1-0.1,0.2-0.2,0.4-0.3l0.2-0.1l0.2-0.1c0.5-0.3,1.1-0.6,1.6-0.8c0.6-0.2,1.1-0.4,1.7-0.5c1.2-0.2,2.4-0.3,3.5-0.3
			c0.6,0,1.2,0.1,1.7,0.2c0.3,0,0.6,0.1,0.8,0.2c0.1,0,0.3,0.1,0.4,0.1c0.1,0,0.3,0.1,0.4,0.1c2.1,0.6,4,1.8,5.1,3.3
			c0.1,0.1,0.1,0.2,0.2,0.3l0.1,0.1l0.1,0.2c0.1,0.1,0.1,0.2,0.2,0.3c0.1,0.1,0.1,0.2,0.2,0.3l0.1,0.2c0,0.1,0,0.1,0.1,0.2
			c0,0.1,0.1,0.2,0.1,0.3c0,0.1,0.1,0.2,0.1,0.3l0.1,0.2c0,0.1,0,0.1,0,0.2c0,0.1,0.1,0.2,0.1,0.3c0,0.1,0,0.2,0,0.3l0,0.2l0,0.2
			c0,0.1,0,0.2,0,0.3c0,0.1,0,0.2,0,0.3c0,0.1,0,0.1,0,0.2l0,0.2c0,0.1,0,0.2,0,0.3c0,0.1,0,0.2,0,0.3c0,0.1,0,0.1,0,0.2l0,0.1
			c0,0.1,0,0.2-0.1,0.3c0,0.1-0.1,0.2-0.1,0.3l0,0.1c0,0,0,0.1-0.1,0.1c0,0.1-0.1,0.2-0.1,0.3c0,0.1-0.1,0.2-0.1,0.3
			c-0.1,0.2-0.2,0.3-0.3,0.5c-0.4,0.6-0.9,1.2-1.4,1.6c-0.5,0.4-1.1,0.7-1.6,0.9c-0.5,0.2-1,0.3-1.5,0.3c-0.1,0-0.1,0-0.2,0
			c-0.1,0-0.1,0-0.2,0c-0.1,0-0.2,0-0.3,0c-0.1,0-0.1,0-0.2,0c0.9-0.4,1.5-1.4,1.4-2.5c-0.1-1.4-1.3-2.4-2.7-2.2
			c-1.3,0.1-2.3,1.4-2.2,2.7c0.1,1.2,1.1,2.1,2.3,2.2c0.1,0,0.1,0.1,0.2,0.1c0.2,0.1,0.3,0.1,0.5,0.2c0.2,0.1,0.4,0.1,0.6,0.2
			c0.1,0,0.2,0,0.4,0.1c0.1,0,0.1,0,0.2,0c0.1,0,0.1,0,0.2,0c0.5,0,1.1,0,1.8-0.2c0.6-0.2,1.3-0.4,1.9-0.9c0.6-0.4,1.3-1,1.8-1.8
			c0.1-0.2,0.3-0.4,0.4-0.6c0.1-0.1,0.1-0.2,0.2-0.3c0-0.1,0.1-0.2,0.1-0.3c0-0.1,0.1-0.1,0.1-0.2l0.1-0.2c0-0.1,0.1-0.2,0.1-0.3
			c0-0.1,0.1-0.2,0.1-0.4l0.1-0.2c0-0.1,0-0.1,0-0.2c0-0.1,0.1-0.2,0.1-0.4c0-0.1,0-0.3,0-0.4l0-0.2c0-0.1,0-0.1,0-0.2
			c0-0.1,0-0.3,0-0.4c0-0.1,0-0.3,0-0.4l0-0.2l0-0.2c0-0.1,0-0.3,0-0.4c0-0.1-0.1-0.3-0.1-0.4c0-0.1,0-0.1,0-0.2l-0.1-0.2
			c0-0.1-0.1-0.3-0.1-0.4c0-0.1-0.1-0.3-0.1-0.4c0-0.1,0-0.1-0.1-0.2l-0.1-0.2c-0.1-0.1-0.1-0.3-0.2-0.4c-0.1-0.1-0.1-0.3-0.2-0.4
			l-0.1-0.2l-0.1-0.2c-0.1-0.1-0.2-0.2-0.2-0.4c-0.3-0.5-0.7-0.9-1.2-1.3c-0.2-0.2-0.4-0.4-0.7-0.6c-0.1-0.1-0.2-0.2-0.4-0.3
			c-0.1-0.1-0.2-0.2-0.4-0.3c-0.1-0.1-0.3-0.2-0.4-0.3c-0.1-0.1-0.3-0.2-0.4-0.2l-0.2-0.1l-0.2-0.1c-0.1-0.1-0.3-0.1-0.4-0.2
			c-0.1-0.1-0.3-0.1-0.4-0.2l-0.2-0.1l-0.2-0.1c-0.1-0.1-0.3-0.1-0.4-0.2c-0.1-0.1-0.3-0.1-0.4-0.2c-0.1-0.1-0.3-0.1-0.4-0.1
			c-0.2,0-0.3-0.1-0.5-0.1c-0.3-0.1-0.6-0.2-0.9-0.2c-0.6-0.1-1.3-0.2-1.9-0.2c-1.3-0.1-2.6,0-4,0.2c-0.7,0.1-1.3,0.3-2,0.6
			c-0.7,0.2-1.3,0.5-1.9,0.9l-0.2,0.1l-0.2,0.2c-0.2,0.1-0.3,0.2-0.5,0.3l-0.2,0.2c-0.1,0.1-0.1,0.1-0.2,0.2
			c-0.1,0.1-0.3,0.2-0.4,0.4c-0.5,0.5-1,1.1-1.5,1.7c-0.4,0.6-0.9,1.3-1.2,2.1c-0.3,0.8-0.6,1.7-0.7,2.7c-0.2,2,0.1,4.2,1,6.2
			c0.2,0.5,0.5,1,0.8,1.5c0.3,0.5,0.6,1,1,1.5c0.4,0.5,0.8,0.9,1.2,1.3c0.2,0.2,0.4,0.4,0.7,0.6c0.1,0.1,0.2,0.2,0.4,0.3
			c0.1,0.1,0.2,0.2,0.4,0.3c0.1,0.1,0.3,0.2,0.4,0.3c0.1,0.1,0.3,0.2,0.4,0.3c0.3,0.2,0.5,0.3,0.8,0.5c0.1,0.1,0.3,0.2,0.4,0.2
			c0.1,0.1,0.3,0.2,0.4,0.2c0.1,0.1,0.3,0.2,0.4,0.2c0.1,0.1,0.3,0.2,0.4,0.2c0.3,0.1,0.6,0.3,0.9,0.4c0.3,0.1,0.6,0.3,0.9,0.4
			c0.3,0.1,0.6,0.2,0.9,0.4c0.2,0.1,0.3,0.1,0.5,0.2c0.2,0.1,0.3,0.1,0.5,0.1c0.2,0,0.3,0.1,0.5,0.1c0.2,0,0.3,0.1,0.5,0.1
			c0.3,0.1,0.7,0.1,1,0.2c0.3,0.1,0.7,0.1,1,0.2c0.2,0,0.3,0,0.5,0.1c0.2,0,0.3,0,0.5,0.1c1.3,0.1,2.7,0.2,4.1,0.1c0.3,0,0.7,0,1,0
			l0.5,0l0.5,0c0.3,0,0.7-0.1,1-0.1c0.3,0,0.7-0.1,1-0.1c0.3,0,0.7-0.1,1-0.1c0.3,0,0.7-0.1,1-0.1c0.3-0.1,0.7-0.1,1-0.2l0.5-0.1
			c0.2,0,0.3-0.1,0.5-0.1c0.3-0.1,0.7-0.1,1-0.2c0.3-0.1,0.7-0.2,1-0.2c0.7-0.1,1.4-0.3,2-0.5c0.3-0.1,0.7-0.2,1-0.3
			c0.3-0.1,0.7-0.2,1-0.3c0.7-0.2,1.3-0.4,2-0.7c1.3-0.5,2.6-1,3.9-1.5c1.3-0.5,2.5-1.1,3.8-1.7c1.2-0.6,2.5-1.1,3.7-1.7
			c1.2-0.6,2.4-1.1,3.6-1.6c2.4-1.1,4.6-2.2,6.9-3.1c1.1-0.5,2.2-0.9,3.3-1.2c1.1-0.4,2.1-0.7,3.2-0.9
			C236.2,19.7,238.1,19.4,239.9,19.5z M242.2,19.8c0.1,0.1,0.3,0.2,0.4,0.2c0,0,0,0,0,0C242.5,20,242.4,19.9,242.2,19.8
			c-0.1,0-0.2,0-0.3-0.1C242,19.7,242.1,19.7,242.2,19.8z M234,19.5c-1.1,0.2-2.2,0.5-3.3,0.9c-1.1,0.3-2.2,0.7-3.4,1.2
			c-2.3,0.9-4.6,1.9-7,2.9c-1.2,0.5-2.4,1-3.6,1.6c-1.2,0.5-2.5,1.1-3.7,1.6c-1.2,0.5-2.5,1.1-3.8,1.6c-1.3,0.5-2.6,1-3.8,1.4
			c-0.6,0.2-1.3,0.4-2,0.6c-0.3,0.1-0.7,0.2-1,0.3c-0.3,0.1-0.7,0.2-1,0.3c-0.7,0.2-1.3,0.3-2,0.5c-0.3,0.1-0.7,0.1-1,0.2
			c-0.3,0.1-0.7,0.1-1,0.2c-0.2,0-0.3,0.1-0.5,0.1l-0.5,0.1c-0.3,0-0.7,0.1-1,0.1c-0.3,0-0.7,0.1-1,0.1c-0.3,0-0.7,0.1-1,0.1
			c-0.1,0-0.2,0-0.2,0c0,0,0,0,0,0c0.3-0.1,0.8-0.2,1.3-0.3c0.5-0.1,1.1-0.2,1.8-0.3c1.3-0.3,2.9-0.8,4.6-1.4
			c1.7-0.7,3.4-1.6,5.2-2.6c2.5-1.3,4.7-2.6,6.7-3.7c1-0.5,1.9-1,2.7-1.4c0.4-0.2,0.8-0.4,1.1-0.6c0.4-0.2,0.7-0.3,1-0.4
			c0.3-0.1,0.6-0.2,1-0.3c0.4-0.1,0.8-0.2,1.2-0.4c0.9-0.3,1.8-0.6,2.9-0.9c2.1-0.6,4.6-1.4,7.3-1.8c1-0.1,2-0.3,2.9-0.3
			c0.5,0,0.9,0,1.4,0c0.2,0,0.5,0,0.7,0c0.2,0,0.4,0,0.7,0c0.6,0,1.3,0.1,1.8,0.2C236.5,19.1,235.2,19.2,234,19.5z"/>
		<path class="st0" d="M222.8,17.1c-0.2,0.1-0.4,0.1-0.6,0.2c-0.2,0.1-0.4,0.1-0.6,0.2c-0.2,0.1-0.4,0.1-0.6,0.2
			c-0.4,0.1-0.8,0.2-1.1,0.3c-0.2,0-0.4,0.1-0.6,0.1c-0.2,0-0.4,0.1-0.6,0.1c-0.1,0-0.2,0-0.3,0l-0.3,0c-0.2,0-0.4,0.1-0.6,0.1
			c-0.2,0-0.4,0-0.6,0.1c-0.2,0-0.4,0-0.6,0.1c0,0-0.1,0-0.1,0c0,0,0,0,0,0c0.2-0.1,0.4-0.1,0.6-0.1c-0.2,0-0.4,0-0.7,0
			c-0.1,0-0.1,0.1-0.2,0.1c-0.1,0-0.2,0-0.3,0c-0.2,0-0.4,0-0.6,0l-0.3,0l-0.3,0c-0.2,0-0.4,0-0.6,0c-0.8,0-1.5,0-2.2-0.1
			c-0.1,0-0.2,0-0.3,0c-0.1,0-0.2,0-0.3,0c-0.2,0-0.4-0.1-0.5-0.1c-0.2,0-0.3-0.1-0.5-0.1c-0.1,0-0.2,0-0.3-0.1
			c-0.1,0-0.2-0.1-0.3-0.1c-0.1,0-0.2,0-0.2-0.1c-0.1,0-0.2-0.1-0.2-0.1c-0.2-0.1-0.3-0.1-0.5-0.2c-0.2-0.1-0.3-0.1-0.5-0.2
			c-0.2-0.1-0.3-0.2-0.5-0.2c-0.1,0-0.1-0.1-0.2-0.1c-0.1,0-0.1-0.1-0.2-0.1s-0.1-0.1-0.2-0.1c-0.1,0-0.1-0.1-0.2-0.1
			c-0.1-0.1-0.3-0.2-0.4-0.3c-0.1,0-0.1-0.1-0.2-0.1c-0.1,0-0.1-0.1-0.2-0.1c-0.1,0-0.1-0.1-0.2-0.1c-0.1,0-0.1-0.1-0.2-0.2
			c-0.1-0.1-0.2-0.2-0.3-0.3c-0.2-0.2-0.4-0.4-0.6-0.7c-0.2-0.2-0.3-0.5-0.5-0.7c-0.1-0.3-0.3-0.5-0.4-0.8c-0.1-0.3-0.2-0.5-0.3-0.8
			c0-0.1-0.1-0.3-0.1-0.4c0-0.1-0.1-0.3-0.1-0.4c-0.1-0.5-0.1-1,0-1.5c0.1-0.5,0.2-0.9,0.3-1.3c0.2-0.4,0.4-0.7,0.6-1
			c0.2-0.3,0.5-0.6,0.7-0.8c0.1-0.1,0.1-0.1,0.2-0.2c0,0,0.1-0.1,0.1-0.1l0.1-0.1c0.1-0.1,0.1-0.1,0.2-0.2l0.1-0.1l0.1-0.1
			c0.3-0.2,0.6-0.3,0.9-0.4c0.3-0.1,0.7-0.2,1-0.3c0.7-0.1,1.4-0.2,2-0.1c0.3,0,0.7,0.1,1,0.1c0.2,0,0.3,0.1,0.5,0.1
			c0.1,0,0.2,0,0.2,0.1c0.1,0,0.2,0,0.2,0.1c1.2,0.4,2.3,1,2.9,1.9c0,0.1,0.1,0.1,0.1,0.2l0.1,0.1l0.1,0.1c0,0.1,0.1,0.1,0.1,0.2
			c0,0.1,0.1,0.1,0.1,0.2l0,0.1c0,0,0,0.1,0,0.1c0,0.1,0,0.1,0.1,0.2c0,0.1,0,0.1,0.1,0.2l0,0.1c0,0,0,0.1,0,0.1c0,0.1,0,0.1,0,0.2
			c0,0.1,0,0.1,0,0.2l0,0.1l0,0.1c0,0.1,0,0.1,0,0.2c0,0.1,0,0.1,0,0.2c0,0,0,0.1,0,0.1l0,0.1c0,0.1,0,0.1,0,0.2c0,0.1,0,0.1,0,0.2
			c0,0,0,0.1,0,0.1l0,0.1c0,0.1,0,0.1,0,0.2c0,0.1,0,0.1-0.1,0.2l0,0.1c0,0,0,0.1,0,0.1c0,0.1,0,0.1-0.1,0.2c0,0.1,0,0.1-0.1,0.1
			c0,0.1-0.1,0.2-0.2,0.3c-0.2,0.4-0.5,0.7-0.8,0.9c-0.3,0.2-0.6,0.4-0.9,0.5c-0.3,0.1-0.6,0.2-0.9,0.2c0,0-0.1,0-0.1,0
			c0,0-0.1,0-0.1,0c-0.1,0-0.1,0-0.2,0c0,0-0.1,0-0.1,0c0.5-0.3,0.8-0.8,0.8-1.4c-0.1-0.8-0.8-1.4-1.5-1.3c-0.8,0.1-1.3,0.8-1.2,1.6
			c0.1,0.7,0.6,1.2,1.3,1.3c0,0,0.1,0,0.1,0c0.1,0,0.2,0.1,0.3,0.1c0.1,0,0.2,0.1,0.4,0.1c0.1,0,0.1,0,0.2,0c0,0,0.1,0,0.1,0
			c0,0,0.1,0,0.1,0c0.3,0,0.6,0,1-0.1c0.4-0.1,0.7-0.2,1.1-0.5c0.4-0.2,0.7-0.6,1-1c0.1-0.1,0.1-0.2,0.2-0.3c0-0.1,0.1-0.1,0.1-0.2
			c0-0.1,0.1-0.1,0.1-0.2c0,0,0-0.1,0-0.1l0-0.1c0-0.1,0-0.1,0.1-0.2c0-0.1,0-0.1,0.1-0.2l0-0.1c0,0,0-0.1,0-0.1c0-0.1,0-0.1,0-0.2
			c0-0.1,0-0.1,0-0.2l0-0.1c0,0,0-0.1,0-0.1c0-0.1,0-0.1,0-0.2c0-0.1,0-0.2,0-0.2l0-0.1l0-0.1c0-0.1,0-0.2,0-0.2c0-0.1,0-0.2,0-0.2
			c0,0,0-0.1,0-0.1l0-0.1c0-0.1,0-0.2-0.1-0.2c0-0.1-0.1-0.2-0.1-0.2c0,0,0-0.1,0-0.1l-0.1-0.1c0-0.1-0.1-0.1-0.1-0.2
			c0-0.1-0.1-0.1-0.1-0.2l-0.1-0.1l-0.1-0.1c0-0.1-0.1-0.1-0.1-0.2c-0.2-0.3-0.4-0.5-0.7-0.8c-0.1-0.1-0.3-0.2-0.4-0.3
			c-0.1-0.1-0.1-0.1-0.2-0.2c-0.1-0.1-0.1-0.1-0.2-0.2c-0.1,0-0.1-0.1-0.2-0.1c-0.1,0-0.1-0.1-0.2-0.1l-0.1-0.1l-0.1-0.1
			c-0.1,0-0.2-0.1-0.2-0.1c-0.1,0-0.2-0.1-0.2-0.1l-0.1-0.1l-0.1,0c-0.1,0-0.2-0.1-0.2-0.1c-0.1,0-0.2-0.1-0.3-0.1
			C212.1,5.1,212,5,212,5c-0.1,0-0.2-0.1-0.3-0.1c-0.2,0-0.4-0.1-0.5-0.1c-0.4-0.1-0.7-0.1-1.1-0.1c-0.7-0.1-1.5,0-2.3,0.1
			c-0.4,0.1-0.8,0.2-1.1,0.3c-0.4,0.1-0.8,0.3-1.1,0.5l-0.1,0.1l-0.1,0.1C205.2,5.9,205.1,6,205,6l-0.1,0.1c0,0-0.1,0.1-0.1,0.1
			c-0.1,0.1-0.2,0.1-0.2,0.2c-0.3,0.3-0.6,0.6-0.8,1c-0.3,0.4-0.5,0.8-0.7,1.2c-0.2,0.5-0.3,1-0.4,1.5c-0.1,1.1,0,2.4,0.6,3.6
			c0.1,0.3,0.3,0.6,0.5,0.9c0.2,0.3,0.4,0.6,0.6,0.8c0.2,0.3,0.5,0.5,0.7,0.8c0.1,0.1,0.3,0.2,0.4,0.4c0.1,0.1,0.1,0.1,0.2,0.2
			c0.1,0.1,0.1,0.1,0.2,0.2c0.1,0.1,0.1,0.1,0.2,0.2c0.1,0.1,0.1,0.1,0.2,0.2c0.1,0.1,0.3,0.2,0.5,0.3c0.1,0,0.2,0.1,0.2,0.1
			c0.1,0,0.2,0.1,0.2,0.1c0.1,0,0.2,0.1,0.2,0.1c0.1,0,0.2,0.1,0.2,0.1c0.2,0.1,0.3,0.2,0.5,0.2c0.2,0.1,0.3,0.1,0.5,0.2
			c0.2,0.1,0.3,0.1,0.5,0.2c0.1,0,0.2,0.1,0.3,0.1c0.1,0,0.2,0.1,0.3,0.1c0.1,0,0.2,0.1,0.3,0.1c0.1,0,0.2,0.1,0.3,0.1
			c0.2,0,0.4,0.1,0.6,0.1c0.2,0,0.4,0.1,0.6,0.1c0.1,0,0.2,0,0.3,0c0.1,0,0.2,0,0.3,0c0.8,0.1,1.5,0.1,2.3,0.1c0.2,0,0.4,0,0.6,0
			l0.3,0l0.3,0c0.2,0,0.4,0,0.6,0c0.2,0,0.4,0,0.6-0.1c0.2,0,0.4,0,0.6-0.1c0.2,0,0.4,0,0.6-0.1c0.2,0,0.4-0.1,0.6-0.1l0.3,0
			c0.1,0,0.2,0,0.3-0.1c0.2,0,0.4-0.1,0.6-0.1c0.2,0,0.4-0.1,0.6-0.1c0.4-0.1,0.8-0.2,1.2-0.3c0.2-0.1,0.4-0.1,0.6-0.2
			c0.2-0.1,0.4-0.1,0.6-0.2c0.4-0.1,0.8-0.3,1.1-0.4c0.3-0.1,0.5-0.2,0.8-0.3c0-0.2,0-0.3,0.1-0.5C223.9,16.9,223.4,17,222.8,17.1z"
			/>
		<path class="st0" d="M247.2,26.3c-1.9-2.7-5.6-4.6-9.1-5.2c-3.5-0.5-7.1,0.7-10.2,2.2c-3.6,1.8-6.9,4.2-10.3,6.3
			c-3.2,2-6.8,3.8-10.8,4c-0.4,0-0.9,0.2-0.9,0.6c-0.2,0.3,0,0.7,0.3,1c2.7,1.9,6.6,1.9,9.9,1c3.3-0.9,5.2-3.9,6.8-6.5
			c0.2,1.5,0.6,3,2,4.1c0.6,0.5,2.5,1.3,1.2-0.8c-1.4-2.2,0.6-5,2.3-6.8c2-2.2,5.3-3.2,8.3-3.6c0.1,0,0.2,0,0.2-0.1
			c0.3,0,0.6,0,0.9,0.1c5.7,0.7,9.3,5,10,9.9c0.6,3.8-0.1,9.1-4.1,11.4c-1.8,1-4.1,1-5.9,0.3c-0.4-0.1-0.9-0.6-1.2-1
			c-0.8-0.8-1-2.3-0.7-3.6c1.5,0.6,3.7,0.3,5.2-0.4c2.1-0.9,3.5-3.2,2.5-4.9c0-0.1-0.1-0.2-0.2-0.3c0-0.2-0.2-0.4-0.4-0.5
			c-4.4-2.2-8.9,0.5-10,4.7c-1.3,4.7,2.9,7.8,7.8,7.8c4.6,0,7.2-3.8,8.1-7.4C250.2,34.5,249.6,29.8,247.2,26.3z M241.7,36.4
			C241.7,36.4,241.8,36.4,241.7,36.4C241.8,36.5,241.7,36.5,241.7,36.4C241.7,36.5,241.7,36.5,241.7,36.4z"/>
		<g>
			<path class="st0" d="M265.1,20.1c1,0.3,2.1,0.6,3.2,0.9c1.1,0.4,2.2,0.8,3.3,1.2c2.2,0.9,4.5,2,6.9,3.1c1.2,0.5,2.4,1.1,3.6,1.6
				c1.2,0.6,2.4,1.1,3.7,1.7c1.2,0.6,2.5,1.1,3.8,1.7c1.3,0.5,2.6,1.1,3.9,1.5c0.7,0.2,1.3,0.5,2,0.7c0.3,0.1,0.7,0.2,1,0.3
				c0.3,0.1,0.7,0.2,1,0.3c0.7,0.2,1.3,0.4,2,0.5c0.3,0.1,0.7,0.2,1,0.2c0.3,0.1,0.7,0.1,1,0.2c0.2,0,0.3,0.1,0.5,0.1l0.5,0.1
				c0.3,0.1,0.7,0.1,1,0.2c0.3,0,0.7,0.1,1,0.1c0.3,0,0.7,0.1,1,0.1c0.3,0,0.7,0.1,1,0.1c0.3,0,0.7,0.1,1,0.1l0.5,0l0.5,0
				c0.3,0,0.7,0,1,0c1.4,0,2.7,0,4.1-0.1c0.2,0,0.3,0,0.5-0.1c0.2,0,0.3,0,0.5-0.1c0.3-0.1,0.7-0.1,1-0.2c0.3-0.1,0.7-0.1,1-0.2
				c0.2,0,0.3-0.1,0.5-0.1c0.2,0,0.3-0.1,0.5-0.1c0.2,0,0.3-0.1,0.5-0.1c0.2-0.1,0.3-0.1,0.5-0.2c0.3-0.1,0.6-0.2,0.9-0.4
				c0.3-0.1,0.6-0.2,0.9-0.4c0.3-0.1,0.6-0.3,0.9-0.4c0.1-0.1,0.3-0.1,0.4-0.2c0.1-0.1,0.3-0.2,0.4-0.2c0.1-0.1,0.3-0.2,0.4-0.2
				c0.1-0.1,0.3-0.2,0.4-0.2c0.3-0.2,0.5-0.3,0.8-0.5c0.1-0.1,0.3-0.2,0.4-0.3c0.1-0.1,0.3-0.2,0.4-0.3c0.1-0.1,0.2-0.2,0.4-0.3
				c0.1-0.1,0.2-0.2,0.4-0.3c0.2-0.2,0.5-0.4,0.7-0.6c0.4-0.4,0.9-0.9,1.2-1.3c0.4-0.5,0.7-1,1-1.5c0.3-0.5,0.6-1,0.8-1.5
				c0.9-2.1,1.3-4.3,1-6.2c-0.1-1-0.4-1.9-0.7-2.7c-0.3-0.8-0.8-1.5-1.2-2.1c-0.4-0.6-0.9-1.2-1.5-1.7c-0.1-0.1-0.3-0.2-0.4-0.4
				c-0.1-0.1-0.1-0.1-0.2-0.2l-0.2-0.2c-0.1-0.1-0.3-0.2-0.5-0.3l-0.2-0.2l-0.2-0.1c-0.6-0.4-1.3-0.7-1.9-0.9
				c-0.7-0.2-1.3-0.4-2-0.6c-1.3-0.3-2.7-0.3-4-0.2c-0.6,0-1.3,0.1-1.9,0.2c-0.3,0.1-0.6,0.1-0.9,0.2c-0.2,0-0.3,0.1-0.5,0.1
				c-0.2,0-0.3,0.1-0.4,0.1c-0.1,0.1-0.3,0.1-0.4,0.2c-0.1,0.1-0.3,0.1-0.4,0.2l-0.2,0.1l-0.2,0.1c-0.1,0.1-0.3,0.1-0.4,0.2
				c-0.1,0.1-0.3,0.1-0.4,0.2l-0.2,0.1l-0.2,0.1c-0.1,0.1-0.3,0.2-0.4,0.2c-0.1,0.1-0.3,0.2-0.4,0.3c-0.1,0.1-0.2,0.2-0.4,0.3
				c-0.1,0.1-0.2,0.2-0.4,0.3c-0.2,0.2-0.5,0.4-0.7,0.6c-0.4,0.4-0.8,0.9-1.2,1.3c-0.1,0.1-0.2,0.2-0.2,0.4l-0.1,0.2l-0.1,0.2
				c-0.1,0.1-0.1,0.3-0.2,0.4c-0.1,0.1-0.1,0.3-0.2,0.4l-0.1,0.2c0,0.1,0,0.1-0.1,0.2c0,0.1-0.1,0.3-0.1,0.4c0,0.1-0.1,0.3-0.1,0.4
				L306,17c0,0.1,0,0.1,0,0.2c0,0.1-0.1,0.3-0.1,0.4c0,0.1,0,0.3,0,0.4l0,0.2l0,0.2c0,0.1,0,0.3,0,0.4c0,0.1,0,0.3,0,0.4
				c0,0.1,0,0.1,0,0.2l0,0.2c0,0.1,0,0.3,0,0.4c0,0.1,0.1,0.2,0.1,0.4c0,0.1,0,0.1,0,0.2l0.1,0.2c0,0.1,0.1,0.2,0.1,0.4
				c0,0.1,0.1,0.2,0.1,0.3l0.1,0.2c0,0.1,0,0.1,0.1,0.2c0,0.1,0.1,0.2,0.1,0.3c0.1,0.1,0.1,0.2,0.2,0.3c0.1,0.2,0.2,0.4,0.4,0.6
				c0.5,0.7,1.1,1.3,1.8,1.8c0.6,0.4,1.3,0.7,1.9,0.9c0.6,0.2,1.2,0.2,1.8,0.2c0.1,0,0.1,0,0.2,0c0.1,0,0.1,0,0.2,0
				c0.1,0,0.2,0,0.4-0.1c0.2-0.1,0.4-0.1,0.6-0.2c0.2-0.1,0.4-0.1,0.5-0.2c0.1,0,0.1-0.1,0.2-0.1c1.2-0.1,2.1-1,2.3-2.2
				c0.1-1.4-0.8-2.6-2.2-2.7c-1.3-0.1-2.5,0.8-2.7,2.2c-0.1,1.1,0.5,2.1,1.4,2.5c-0.1,0-0.1,0-0.2,0c-0.1,0-0.2,0-0.3,0
				c-0.1,0-0.1,0-0.2,0c-0.1,0-0.1,0-0.2,0c-0.5,0-1-0.1-1.5-0.3c-0.5-0.2-1.1-0.5-1.6-0.9c-0.5-0.4-1-0.9-1.4-1.6
				c-0.1-0.2-0.2-0.3-0.3-0.5c0-0.1-0.1-0.2-0.1-0.3c0-0.1-0.1-0.2-0.1-0.3c0,0,0-0.1-0.1-0.1l0-0.1c0-0.1-0.1-0.2-0.1-0.3
				c0-0.1,0-0.2-0.1-0.3l0-0.1c0-0.1,0-0.1,0-0.2c0-0.1,0-0.2,0-0.3c0-0.1,0-0.2,0-0.3l0-0.2c0-0.1,0-0.1,0-0.2c0-0.1,0-0.2,0-0.3
				c0-0.1,0-0.2,0-0.3l0-0.2l0-0.2c0-0.1,0-0.2,0-0.3c0-0.1,0.1-0.2,0.1-0.3c0-0.1,0-0.1,0-0.2l0.1-0.2c0-0.1,0.1-0.2,0.1-0.3
				c0-0.1,0.1-0.2,0.1-0.3c0-0.1,0-0.1,0.1-0.2l0.1-0.2c0.1-0.1,0.1-0.2,0.2-0.3c0.1-0.1,0.1-0.2,0.2-0.3l0.1-0.2l0.1-0.1
				c0.1-0.1,0.1-0.2,0.2-0.3c1.2-1.5,3-2.7,5.1-3.3c0.1,0,0.3-0.1,0.4-0.1c0.1,0,0.3-0.1,0.4-0.1c0.3-0.1,0.5-0.1,0.8-0.2
				c0.6-0.1,1.1-0.2,1.7-0.2c1.2-0.1,2.4,0,3.5,0.3c0.6,0.1,1.2,0.3,1.7,0.5c0.6,0.2,1.1,0.5,1.6,0.8l0.2,0.1l0.2,0.1
				c0.1,0.1,0.2,0.2,0.4,0.3l0.2,0.1c0.1,0,0.1,0.1,0.2,0.1c0.1,0.1,0.2,0.2,0.3,0.3c0.4,0.4,0.9,0.9,1.2,1.4c0.4,0.5,0.7,1.1,1,1.8
				c0.3,0.7,0.5,1.4,0.6,2.2c0.1,0.8,0.1,1.7,0,2.5c0,0.2-0.1,0.4-0.1,0.7c0,0.2-0.1,0.4-0.2,0.7c-0.1,0.4-0.3,0.9-0.5,1.4
				c-0.2,0.5-0.4,0.9-0.7,1.3c-0.3,0.4-0.5,0.9-0.9,1.3c-0.3,0.4-0.7,0.8-1.1,1.2c-0.2,0.2-0.4,0.4-0.6,0.6
				c-0.1,0.1-0.2,0.2-0.3,0.3c-0.1,0.1-0.2,0.2-0.3,0.3c-0.1,0.1-0.2,0.2-0.3,0.2c-0.1,0.1-0.2,0.2-0.3,0.2
				c-0.2,0.2-0.5,0.3-0.7,0.5c-0.1,0.1-0.2,0.2-0.4,0.2c-0.1,0.1-0.3,0.1-0.4,0.2c-0.1,0.1-0.3,0.1-0.4,0.2
				c-0.1,0.1-0.3,0.1-0.4,0.2c-0.3,0.1-0.5,0.3-0.8,0.4c-0.3,0.1-0.5,0.2-0.8,0.4c-0.3,0.1-0.6,0.2-0.8,0.3
				c-0.1,0.1-0.3,0.1-0.4,0.2c-0.1,0.1-0.3,0.1-0.4,0.1c-0.1,0-0.3,0.1-0.4,0.1c-0.1,0-0.3,0.1-0.4,0.1c-0.3,0.1-0.6,0.1-0.9,0.2
				c-0.3,0.1-0.6,0.1-0.9,0.2c-0.2,0-0.3,0-0.5,0.1c-0.2,0-0.3,0-0.5,0.1c-1.3,0.1-2.5,0.2-3.9,0.2c-0.3,0-0.7,0-1,0l-0.5,0l-0.5,0
				c-0.3,0-0.7,0-1-0.1c-0.1,0-0.3,0-0.4,0c-0.1-0.1-0.2-0.1-0.3-0.2c-0.3-0.2-0.8-0.3-1.3-0.4c-0.5-0.1-1.1-0.3-1.7-0.5
				c-1.3-0.4-2.8-1-4.4-1.7c-1.6-0.8-3.3-1.7-5.1-2.7c-2.5-1.3-4.8-2.6-6.8-3.5c-1-0.5-2-0.9-2.8-1.2c-0.4-0.2-0.8-0.3-1.2-0.5
				c-0.4-0.1-0.7-0.2-1-0.3c-0.3-0.1-0.6-0.3-1-0.4c-0.4-0.2-0.7-0.3-1.2-0.5c-0.8-0.3-1.8-0.7-2.8-1.1c-2.1-0.8-4.6-1.6-7.4-2.1
				c-1-0.1-2-0.3-3-0.3c-0.5,0-1,0-1.4,0c-0.2,0-0.5,0-0.7,0c-0.2,0-0.5,0-0.7,0.1c-1.6,0.2-3,0.6-4.2,1c-0.3,0-0.5,0-0.7,0.1
				c0.5-0.2,1.1-0.5,1.8-0.7c0.2-0.1,0.3-0.1,0.5-0.2c0.2-0.1,0.3-0.1,0.5-0.2c0.3-0.1,0.7-0.2,1.1-0.3c0.7-0.2,1.5-0.4,2.4-0.5
				c0.8-0.2,1.7-0.3,2.6-0.3c0.5,0,0.9,0,1.4,0c0.2,0,0.5,0,0.7,0c0.2,0,0.5,0,0.7,0c2.6,0.2,5.1,0.8,7.2,1.3c2.1,0.6,3.8,1.1,5,1.5
				c0.6,0.3,1.2,0.6,2,1c0.8,0.4,1.7,0.8,2.6,1.3c0.9,0.5,2,1.1,3.1,1.7c1.1,0.6,2.2,1.3,3.4,2c0.9,0.5,1.7,1,2.5,1.5
				c0.8,0.5,1.5,1,2.2,1.5c0.7,0.5,1.4,1,2,1.4c0.6,0.4,1.3,0.8,1.8,1.2c1.2,0.7,2.2,1.1,2.9,1.2c0.2,0,0.3,0.1,0.5,0.1
				c0.1,0,0.3,0,0.4,0.1c0.2,0,0.3,0.1,0.3,0.1s-0.1,0-0.3-0.1c-0.1,0-0.2-0.1-0.3-0.1c-0.1,0-0.3-0.1-0.4-0.2
				c-0.7-0.3-1.6-0.8-2.7-1.5c-0.5-0.4-1.1-0.8-1.7-1.3c-0.6-0.5-1.3-1-1.9-1.5c-0.7-0.5-1.4-1.1-2.2-1.6c-0.8-0.5-1.6-1-2.5-1.5
				c-1.2-0.7-2.3-1.3-3.4-1.9c-1.1-0.6-2.2-1.1-3.2-1.5c-1-0.4-1.9-0.8-2.7-1.1c-0.8-0.3-1.5-0.6-2.1-0.8c-1.1-0.5-2.8-1.3-4.8-2
				c-2.1-0.7-4.5-1.4-7.3-1.6c-0.3,0-0.5,0-0.8,0c-0.3,0-0.5,0-0.7,0c-0.5,0-1,0-1.5,0.1c-1,0.1-1.9,0.3-2.7,0.5
				c-0.9,0.2-1.6,0.5-2.4,0.7c-0.4,0.1-0.7,0.3-1.1,0.4c-0.2,0.1-0.3,0.1-0.5,0.2c-0.2,0.1-0.3,0.1-0.5,0.2c-1,0.4-1.8,0.9-2.4,1.3
				c-0.4,0.1-0.8,0.2-1.2,0.3c-0.7,0.2-1.3,0.5-1.9,0.8c0.1,0.1,0.1,0.2,0.1,0.3c0,0,0,0,0,0c0.5-0.3,1.1-0.6,1.8-0.8
				c0.1,0,0.1,0,0.2,0c-0.1,0-0.1,0.1-0.2,0.1c-0.1,0-0.1,0.1-0.1,0.1c-0.3,0.1-0.5,0.2-0.8,0.3c-0.4,0.2-0.8,0.3-0.9,0.4
				c0,0,0,0,0,0c0.2,0,0.5-0.1,1-0.2c0.4-0.1,0.8-0.2,1.3-0.4c0.5-0.1,1.1-0.3,1.7-0.5c0.2,0,0.3-0.1,0.5-0.1
				C261.1,19.4,263.1,19.7,265.1,20.1z M257.3,19.7c-0.1,0-0.2,0.1-0.3,0.1c-0.1,0.1-0.3,0.1-0.4,0.2c0,0,0,0,0,0
				c0.1-0.1,0.2-0.1,0.4-0.2C257.1,19.7,257.2,19.7,257.3,19.7z M261.6,19c0.6-0.1,1.2-0.2,1.8-0.2c0.2,0,0.4,0,0.7,0
				c0.2,0,0.4,0,0.7,0c0.5,0,0.9,0,1.4,0c0.9,0,1.9,0.2,2.9,0.3c2.7,0.4,5.2,1.1,7.3,1.8c1.1,0.3,2,0.6,2.9,0.9
				c0.4,0.1,0.8,0.3,1.2,0.4c0.4,0.1,0.7,0.2,1,0.3c0.3,0.1,0.6,0.3,1,0.4c0.3,0.2,0.7,0.4,1.1,0.6c0.8,0.4,1.7,0.9,2.7,1.4
				c2,1.1,4.2,2.4,6.7,3.7c1.8,1,3.6,1.9,5.2,2.6c1.7,0.7,3.2,1.2,4.6,1.4c0.7,0.1,1.3,0.3,1.8,0.3c0.5,0.1,1,0.1,1.3,0.3
				c0,0,0,0,0,0c-0.1,0-0.2,0-0.2,0c-0.3,0-0.7-0.1-1-0.1c-0.3,0-0.7-0.1-1-0.1c-0.3,0-0.7-0.1-1-0.1l-0.5-0.1
				c-0.2,0-0.3-0.1-0.5-0.1c-0.3-0.1-0.7-0.1-1-0.2c-0.3-0.1-0.7-0.1-1-0.2c-0.7-0.1-1.3-0.3-2-0.5c-0.3-0.1-0.7-0.2-1-0.3
				c-0.3-0.1-0.7-0.2-1-0.3c-0.7-0.2-1.3-0.4-2-0.6c-1.3-0.4-2.6-0.9-3.8-1.4c-1.3-0.5-2.5-1-3.8-1.6c-1.2-0.5-2.5-1.1-3.7-1.6
				c-1.2-0.5-2.4-1.1-3.6-1.6c-2.4-1-4.7-2.1-7-2.9c-1.1-0.4-2.3-0.8-3.4-1.2c-1.1-0.3-2.2-0.6-3.3-0.9
				C264,19.2,262.7,19.1,261.6,19z"/>
			<path class="st0" d="M276.4,17.1c0.2,0.1,0.4,0.1,0.6,0.2c0.2,0.1,0.4,0.1,0.6,0.2c0.2,0.1,0.4,0.1,0.6,0.2
				c0.4,0.1,0.8,0.2,1.1,0.3c0.2,0,0.4,0.1,0.6,0.1c0.2,0,0.4,0.1,0.6,0.1c0.1,0,0.2,0,0.3,0l0.3,0c0.2,0,0.4,0.1,0.6,0.1
				c0.2,0,0.4,0,0.6,0.1c0.2,0,0.4,0,0.6,0.1c0,0,0.1,0,0.1,0c0,0,0,0,0,0c-0.2-0.1-0.4-0.1-0.6-0.1c0.2,0,0.4,0,0.7,0
				c0.1,0,0.1,0.1,0.2,0.1c0.1,0,0.2,0,0.3,0c0.2,0,0.4,0,0.6,0l0.3,0l0.3,0c0.2,0,0.4,0,0.6,0c0.8,0,1.5,0,2.2-0.1
				c0.1,0,0.2,0,0.3,0c0.1,0,0.2,0,0.3,0c0.2,0,0.4-0.1,0.5-0.1c0.2,0,0.3-0.1,0.5-0.1c0.1,0,0.2,0,0.3-0.1c0.1,0,0.2-0.1,0.3-0.1
				c0.1,0,0.2,0,0.2-0.1c0.1,0,0.2-0.1,0.2-0.1c0.2-0.1,0.3-0.1,0.5-0.2c0.2-0.1,0.3-0.1,0.5-0.2c0.2-0.1,0.3-0.2,0.5-0.2
				c0.1,0,0.1-0.1,0.2-0.1c0.1,0,0.1-0.1,0.2-0.1c0.1,0,0.1-0.1,0.2-0.1c0.1,0,0.1-0.1,0.2-0.1c0.1-0.1,0.3-0.2,0.4-0.3
				c0.1,0,0.1-0.1,0.2-0.1c0.1,0,0.1-0.1,0.2-0.1c0.1,0,0.1-0.1,0.2-0.1c0.1,0,0.1-0.1,0.2-0.2c0.1-0.1,0.2-0.2,0.3-0.3
				c0.2-0.2,0.4-0.4,0.6-0.7c0.2-0.2,0.3-0.5,0.5-0.7c0.1-0.3,0.3-0.5,0.4-0.8c0.1-0.3,0.2-0.5,0.3-0.8c0-0.1,0.1-0.3,0.1-0.4
				c0-0.1,0.1-0.3,0.1-0.4c0.1-0.5,0.1-1,0-1.5c-0.1-0.5-0.2-0.9-0.3-1.3c-0.2-0.4-0.4-0.7-0.6-1c-0.2-0.3-0.5-0.6-0.7-0.8
				c-0.1-0.1-0.1-0.1-0.2-0.2c0,0-0.1-0.1-0.1-0.1l-0.1-0.1c-0.1-0.1-0.1-0.1-0.2-0.2l-0.1-0.1l-0.1-0.1c-0.3-0.2-0.6-0.3-0.9-0.4
				c-0.3-0.1-0.7-0.2-1-0.3c-0.7-0.1-1.4-0.2-2-0.1c-0.3,0-0.7,0.1-1,0.1c-0.2,0-0.3,0.1-0.5,0.1c-0.1,0-0.2,0-0.2,0.1
				c-0.1,0-0.2,0-0.2,0.1c-1.2,0.4-2.3,1-2.9,1.9c0,0.1-0.1,0.1-0.1,0.2l-0.1,0.1l-0.1,0.1c0,0.1-0.1,0.1-0.1,0.2
				c0,0.1-0.1,0.1-0.1,0.2l0,0.1c0,0,0,0.1,0,0.1c0,0.1,0,0.1-0.1,0.2c0,0.1,0,0.1-0.1,0.2l0,0.1c0,0,0,0.1,0,0.1c0,0.1,0,0.1,0,0.2
				c0,0.1,0,0.1,0,0.2l0,0.1l0,0.1c0,0.1,0,0.1,0,0.2c0,0.1,0,0.1,0,0.2c0,0,0,0.1,0,0.1l0,0.1c0,0.1,0,0.1,0,0.2c0,0.1,0,0.1,0,0.2
				c0,0,0,0.1,0,0.1l0,0.1c0,0.1,0,0.1,0,0.2c0,0.1,0,0.1,0.1,0.2l0,0.1c0,0,0,0.1,0,0.1c0,0.1,0,0.1,0.1,0.2c0,0.1,0,0.1,0.1,0.1
				c0,0.1,0.1,0.2,0.2,0.3c0.2,0.4,0.5,0.7,0.8,0.9c0.3,0.2,0.6,0.4,0.9,0.5c0.3,0.1,0.6,0.2,0.9,0.2c0,0,0.1,0,0.1,0
				c0,0,0.1,0,0.1,0c0.1,0,0.1,0,0.2,0c0,0,0.1,0,0.1,0c-0.5-0.3-0.8-0.8-0.8-1.4c0.1-0.8,0.8-1.4,1.5-1.3c0.8,0.1,1.3,0.8,1.2,1.6
				c-0.1,0.7-0.6,1.2-1.3,1.3c0,0-0.1,0-0.1,0c-0.1,0-0.2,0.1-0.3,0.1c-0.1,0-0.2,0.1-0.4,0.1c-0.1,0-0.1,0-0.2,0c0,0-0.1,0-0.1,0
				c0,0-0.1,0-0.1,0c-0.3,0-0.6,0-1-0.1c-0.4-0.1-0.7-0.2-1.1-0.5c-0.4-0.2-0.7-0.6-1-1c-0.1-0.1-0.1-0.2-0.2-0.3
				c0-0.1-0.1-0.1-0.1-0.2c0-0.1-0.1-0.1-0.1-0.2c0,0,0-0.1,0-0.1l0-0.1c0-0.1,0-0.1-0.1-0.2c0-0.1,0-0.1-0.1-0.2l0-0.1
				c0,0,0-0.1,0-0.1c0-0.1,0-0.1,0-0.2c0-0.1,0-0.1,0-0.2l0-0.1c0,0,0-0.1,0-0.1c0-0.1,0-0.1,0-0.2c0-0.1,0-0.2,0-0.2l0-0.1l0-0.1
				c0-0.1,0-0.2,0-0.2c0-0.1,0-0.2,0-0.2c0,0,0-0.1,0-0.1l0-0.1c0-0.1,0-0.2,0.1-0.2c0-0.1,0.1-0.2,0.1-0.2c0,0,0-0.1,0-0.1l0.1-0.1
				c0-0.1,0.1-0.1,0.1-0.2c0-0.1,0.1-0.1,0.1-0.2l0.1-0.1l0.1-0.1c0-0.1,0.1-0.1,0.1-0.2c0.2-0.3,0.4-0.5,0.7-0.8
				c0.1-0.1,0.3-0.2,0.4-0.3c0.1-0.1,0.1-0.1,0.2-0.2c0.1-0.1,0.1-0.1,0.2-0.2c0.1,0,0.1-0.1,0.2-0.1c0.1,0,0.1-0.1,0.2-0.1l0.1-0.1
				l0.1-0.1c0.1,0,0.2-0.1,0.2-0.1c0.1,0,0.2-0.1,0.2-0.1l0.1-0.1l0.1,0c0.1,0,0.2-0.1,0.2-0.1c0.1,0,0.2-0.1,0.3-0.1
				c0.1,0,0.2-0.1,0.3-0.1c0.1,0,0.2-0.1,0.3-0.1c0.2,0,0.4-0.1,0.5-0.1c0.4-0.1,0.7-0.1,1.1-0.1c0.7-0.1,1.5,0,2.3,0.1
				c0.4,0.1,0.8,0.2,1.1,0.3c0.4,0.1,0.8,0.3,1.1,0.5l0.1,0.1l0.1,0.1c0.1,0.1,0.2,0.1,0.3,0.2l0.1,0.1c0,0,0.1,0.1,0.1,0.1
				c0.1,0.1,0.2,0.1,0.2,0.2c0.3,0.3,0.6,0.6,0.8,1c0.3,0.4,0.5,0.8,0.7,1.2c0.2,0.5,0.3,1,0.4,1.5c0.1,1.1,0,2.4-0.6,3.6
				c-0.1,0.3-0.3,0.6-0.5,0.9c-0.2,0.3-0.4,0.6-0.6,0.8c-0.2,0.3-0.5,0.5-0.7,0.8c-0.1,0.1-0.3,0.2-0.4,0.4
				c-0.1,0.1-0.1,0.1-0.2,0.2c-0.1,0.1-0.1,0.1-0.2,0.2c-0.1,0.1-0.1,0.1-0.2,0.2c-0.1,0.1-0.1,0.1-0.2,0.2
				c-0.1,0.1-0.3,0.2-0.5,0.3c-0.1,0-0.2,0.1-0.2,0.1c-0.1,0-0.2,0.1-0.2,0.1c-0.1,0-0.2,0.1-0.2,0.1c-0.1,0-0.2,0.1-0.2,0.1
				c-0.2,0.1-0.3,0.2-0.5,0.2c-0.2,0.1-0.3,0.1-0.5,0.2c-0.2,0.1-0.3,0.1-0.5,0.2c-0.1,0-0.2,0.1-0.3,0.1c-0.1,0-0.2,0.1-0.3,0.1
				c-0.1,0-0.2,0.1-0.3,0.1c-0.1,0-0.2,0.1-0.3,0.1c-0.2,0-0.4,0.1-0.6,0.1c-0.2,0-0.4,0.1-0.6,0.1c-0.1,0-0.2,0-0.3,0
				c-0.1,0-0.2,0-0.3,0c-0.8,0.1-1.5,0.1-2.3,0.1c-0.2,0-0.4,0-0.6,0l-0.3,0l-0.3,0c-0.2,0-0.4,0-0.6,0c-0.2,0-0.4,0-0.6-0.1
				c-0.2,0-0.4,0-0.6-0.1c-0.2,0-0.4,0-0.6-0.1c-0.2,0-0.4-0.1-0.6-0.1l-0.3,0c-0.1,0-0.2,0-0.3-0.1c-0.2,0-0.4-0.1-0.6-0.1
				c-0.2,0-0.4-0.1-0.6-0.1c-0.4-0.1-0.8-0.2-1.2-0.3c-0.2-0.1-0.4-0.1-0.6-0.2c-0.2-0.1-0.4-0.1-0.6-0.2c-0.4-0.1-0.8-0.3-1.1-0.4
				c-0.3-0.1-0.5-0.2-0.8-0.3c0-0.2,0-0.3-0.1-0.5C275.4,16.9,275.9,17,276.4,17.1z"/>
			<path class="st0" d="M250.1,38.5c0.9,3.6,3.5,7.4,8.1,7.4c4.8,0,9-3.1,7.8-7.8c-1.1-4.2-5.6-6.9-10-4.7c-0.2,0.1-0.4,0.3-0.4,0.5
				c-0.1,0.1-0.1,0.2-0.2,0.3c-1,1.7,0.4,4,2.5,4.9c1.6,0.7,3.7,1,5.2,0.4c0.3,1.3,0,2.7-0.7,3.5c-0.3,0.3-0.7,0.9-1.2,1
				c-1.8,0.7-4.1,0.8-5.9-0.3c-4-2.3-4.6-7.6-4.1-11.4c0.7-4.9,4.3-9.2,10-9.9c0.3,0,0.6-0.1,0.9-0.1c0.1,0,0.1,0,0.2,0.1
				c3,0.4,6.3,1.4,8.3,3.6c1.7,1.8,3.7,4.7,2.3,6.8c-1.4,2.1,0.6,1.2,1.2,0.8c1.4-1,1.8-2.5,2-4.1c1.6,2.7,3.5,5.6,6.8,6.5
				c3.2,0.9,7.1,0.9,9.9-1c0.4-0.3,0.5-0.7,0.3-1c0-0.3-0.4-0.5-0.9-0.6c-4-0.2-7.5-2-10.8-4c-3.4-2.1-6.7-4.4-10.3-6.3
				c-3.1-1.6-6.7-2.8-10.2-2.2c-3.5,0.5-7.2,2.4-9.1,5.2C249.6,29.8,249.1,34.5,250.1,38.5z M257.5,36.5
				C257.5,36.5,257.5,36.5,257.5,36.5C257.5,36.4,257.5,36.4,257.5,36.5C257.5,36.5,257.5,36.5,257.5,36.5z"/>
		</g>
	</g>
	<g>
		<g>
			<path class="st0" d="M138.3,46.5c0,0,0.2,0.1,0.6,0.2c0.2,0.1,0.4,0.1,0.7,0.2c0.1,0,0.3,0.1,0.4,0.1c0.2,0,0.3,0.1,0.5,0.1
				c1.4,0.2,3.6,0.3,6.1,0.1c2.6-0.2,5.6-0.8,9-1.6c1.7-0.4,3.4-0.9,5.2-1.5c0.9-0.3,1.8-0.6,2.7-0.9c0.9-0.3,1.8-0.7,2.7-1.1
				c1.8-0.7,3.6-1.5,5.3-2.2c1.7-0.7,3.3-1.3,4.9-1.8c3.2-1,6.2-1.6,8.7-1.7c0.6,0,1.2,0,1.8,0c0.6,0,1.1,0.1,1.6,0.1
				c1,0.1,1.8,0.4,2.5,0.7c0.6,0.3,1.1,0.6,1.4,0.8c0.2,0.1,0.3,0.2,0.3,0.3c0.1,0.1,0.1,0.1,0.1,0.1s0,0-0.1-0.1
				c-0.1-0.1-0.2-0.2-0.3-0.3c-0.3-0.3-0.7-0.6-1.3-1c-0.6-0.4-1.5-0.7-2.5-1c-0.5-0.1-1.1-0.2-1.6-0.3c-0.6-0.1-1.2-0.1-1.9-0.2
				c-2.6-0.1-5.7,0.3-9.1,1.1c-1.7,0.4-3.4,1-5.2,1.6c-1.8,0.6-3.5,1.4-5.3,2.1c-0.9,0.4-1.8,0.7-2.7,1.1c-0.9,0.3-1.7,0.7-2.6,1
				c-1.7,0.6-3.4,1.2-5,1.7c-3.2,1-6.1,1.8-8.6,2.2c-2.5,0.5-4.6,0.6-6,0.6c-0.2,0-0.3,0-0.5,0c-0.2,0-0.3,0-0.4,0
				c-0.3,0-0.5,0-0.7-0.1C138.5,46.5,138.3,46.5,138.3,46.5z"/>
		</g>
		<g>
			<path class="st0" d="M130.4,35.6c-0.1-0.2-0.3-0.3-0.6-0.3c-0.2,0-0.3,0-0.5,0c-0.2,0-0.4,0.1-0.6,0.2c-0.2,0.1-0.5,0.2-0.7,0.3
				c-0.2,0.2-0.5,0.3-0.8,0.6c-0.5,0.5-1,1.1-1.3,2c-0.1,0.4-0.2,1-0.2,1.7c0.1,0.7,0.3,1.4,0.6,2c0.7,1.3,1.8,2.4,2.9,3.1
				c0.6,0.4,1.2,0.7,1.7,0.9c0.5,0.2,1.1,0.4,1.5,0.5c0.9,0.2,1.5,0.2,1.5,0.1c0-0.1-0.5-0.4-1.2-0.8c-0.3-0.2-0.7-0.5-1.1-0.9
				c-0.4-0.3-0.8-0.7-1.2-1.2c-0.4-0.4-0.7-0.9-1-1.4c-0.3-0.5-0.5-1-0.6-1.4c-0.1-0.4-0.1-0.8-0.1-1.1c0-0.3,0.1-0.5,0.1-0.7
				c0.1-0.3,0.3-0.7,0.5-1c0.1-0.2,0.2-0.3,0.3-0.5c0.1-0.2,0.2-0.3,0.3-0.5c0.1-0.2,0.2-0.3,0.3-0.5c0.1-0.2,0.1-0.3,0.2-0.4
				C130.5,36,130.5,35.7,130.4,35.6z"/>
		</g>
		<g>
			<path class="st0" d="M121,45.8c0.1,0.2,0.2,0.4,0.3,0.5c0.1,0.2,0.3,0.3,0.5,0.4c0.4,0.2,0.8,0.4,1.2,0.4c0.2,0,0.6,0,1.1,0.1
				c0.5,0.1,1.1,0.2,1.6,0.3c0.1,0,0.3,0.1,0.4,0.1c0.1,0,0.3,0.1,0.4,0.1c0.2,0.1,0.5,0.2,0.7,0.3c0.2,0.1,0.4,0.2,0.5,0.2
				c0.1,0,0.2,0.1,0.3,0c0,0,0-0.1,0-0.3c0-0.1-0.1-0.3-0.2-0.6c-0.1-0.2-0.2-0.5-0.4-0.7c-0.1-0.1-0.2-0.3-0.3-0.4
				c-0.1-0.1-0.2-0.3-0.3-0.4c-0.5-0.5-1.1-1-1.7-1.4c-0.6-0.4-1.2-0.6-1.6-0.6c-0.8-0.1-1.6,0.1-2,0.5c-0.2,0.2-0.4,0.4-0.5,0.6
				C121,45.4,121,45.6,121,45.8z"/>
		</g>
		<path class="st0" d="M108.9,40.8c0-0.3,0-0.5,0.1-0.7c0-0.2,0-0.5,0.1-0.7c0.3-1.9,1.1-3.8,2.1-5.3c1.1-1.5,2.4-2.7,3.9-3.6
			c1.4-0.9,2.9-1.5,4.4-1.9c1.5-0.4,2.9-0.6,4.2-0.7c1.4-0.1,2.6-0.1,3.8,0c0.3,0,0.6,0.1,0.9,0.1c0.3,0,0.6,0.1,0.8,0.1
			c0.3,0,0.5,0.1,0.8,0.1c0.3,0.1,0.5,0.1,0.8,0.2c0.2,0.1,0.5,0.1,0.7,0.2c0.1,0,0.2,0.1,0.3,0.1c0.1,0,0.2,0.1,0.3,0.1
			c0.2,0.1,0.4,0.1,0.6,0.2c0.2,0.1,0.4,0.1,0.6,0.2c1.6,0.5,2.7,1.1,3.5,1.6c0.2,0.1,0.4,0.2,0.5,0.3c0.1,0.1,0.3,0.2,0.4,0.2
			c0.2,0.1,0.3,0.2,0.3,0.2s-0.1-0.1-0.3-0.2c-0.1-0.1-0.2-0.1-0.4-0.2c-0.1-0.1-0.3-0.2-0.5-0.3c-0.8-0.4-2-0.9-3.5-1.3
			c-0.2-0.1-0.4-0.1-0.6-0.2c-0.2,0-0.4-0.1-0.6-0.1c-0.1,0-0.2,0-0.3-0.1c-0.1,0-0.2,0-0.3-0.1c-0.2,0-0.5-0.1-0.7-0.1
			c-0.2,0-0.5-0.1-0.8-0.1c-0.3,0-0.5-0.1-0.8-0.1c-0.3,0-0.5,0-0.8-0.1c-0.3,0-0.6,0-0.8,0c-1.1,0-2.4,0-3.7,0.2
			c-1.3,0.2-2.6,0.5-4,0.9c-1.3,0.5-2.7,1.1-4,1.9c-1.3,0.9-2.4,2-3.3,3.3c-0.9,1.3-1.4,2.9-1.6,4.6c0,0.2,0,0.4-0.1,0.6
			c0,0.2,0,0.4,0,0.6c0,0.4,0,0.9,0.1,1.3c0,0.4,0.1,0.8,0.2,1.3c0.1,0.2,0.1,0.4,0.2,0.6c0.1,0.2,0.1,0.4,0.2,0.6
			c0.1,0.4,0.4,0.8,0.6,1.2c0.1,0.2,0.2,0.4,0.3,0.6l0.1,0.1l0.1,0.1l0.2,0.3c0.5,0.7,1.2,1.4,1.9,2.1c1.4,1.3,3.1,2.3,4.9,3.2
			c1.8,0.9,3.8,1.5,5.8,2c1,0.2,2.1,0.4,3.1,0.6c1.1,0.1,2.1,0.2,3.2,0.2c0.3,0,0.5,0,0.8,0c0.3,0,0.5,0,0.8,0c0.3,0,0.5,0,0.8-0.1
			c0.3,0,0.5-0.1,0.8-0.1c1.1-0.1,2.2-0.3,3.2-0.5c0.5-0.1,1.1-0.2,1.6-0.3c0.5-0.1,1-0.2,1.6-0.3c0.5-0.1,1-0.2,1.5-0.3
			c0.5-0.1,1-0.2,1.5-0.4c4.1-1,7.9-2.2,11.6-3.5c3.7-1.3,7.1-2.5,10.4-3.7c3.3-1.2,6.3-2.2,9.1-3.1c1.4-0.4,2.8-0.8,4-1.2
			c1.3-0.4,2.5-0.7,3.7-0.9c2.3-0.5,4.4-0.6,6-0.5c0.8,0.1,1.6,0.2,2.2,0.4c0.2,0.1,0.5,0.1,0.7,0.2c0.1,0,0.1,0,0.2,0
			c0.1,0,0.2,0,0.3,0.1c0.1,0,0.2,0.1,0.3,0.1c0.1,0,0.2,0.1,0.3,0.1c0.2,0.1,0.3,0.1,0.5,0.2c0.3,0.1,0.6,0.3,0.9,0.5
			c0.3,0.2,0.6,0.4,0.8,0.6c0.3,0.2,0.5,0.4,0.7,0.7c0.9,0.9,1.5,2,1.7,3.1c0.1,0.5,0.2,1.1,0.1,1.6c0,0.5-0.1,1-0.2,1.4
			c-0.1,0.4-0.3,0.8-0.5,1.2c-0.1,0.1-0.1,0.2-0.2,0.3c0,0-0.1,0.1-0.1,0.1l-0.1,0.1c-0.1,0.1-0.1,0.2-0.2,0.3l-0.1,0.1l-0.1,0.1
			c-0.3,0.3-0.6,0.6-0.9,0.9c-0.3,0.3-0.6,0.5-1,0.7c-0.7,0.4-1.4,0.7-2.1,0.9c-0.4,0.1-0.7,0.2-1.1,0.2c-0.2,0-0.4,0-0.5,0.1
			c-0.1,0-0.2,0-0.3,0c-0.1,0-0.2,0-0.3,0c-0.1,0-0.2,0-0.3,0c-0.1,0-0.2,0-0.3,0l-0.1,0l-0.1,0c-0.1,0-0.2,0-0.3,0
			c-0.1,0-0.2,0-0.3,0l-0.1,0l-0.1,0c-0.1,0-0.2,0-0.3,0c-0.1,0-0.2,0-0.3-0.1c-0.1,0-0.2,0-0.3-0.1c-0.1,0-0.2,0-0.2-0.1
			c-0.2-0.1-0.3-0.1-0.5-0.2c-0.3-0.1-0.6-0.3-0.9-0.5c-0.1,0-0.1-0.1-0.2-0.1l-0.1-0.1l-0.1-0.1c-0.1-0.1-0.1-0.1-0.2-0.2
			c-0.1-0.1-0.1-0.1-0.2-0.2l-0.1-0.1c0,0-0.1-0.1-0.1-0.1c-0.1-0.1-0.1-0.1-0.2-0.2c0-0.1-0.1-0.1-0.1-0.2l-0.1-0.1
			c0,0,0-0.1-0.1-0.1c0-0.1-0.1-0.1-0.1-0.2c0-0.1-0.1-0.1-0.1-0.2l0-0.1l0-0.1c0-0.1-0.1-0.1-0.1-0.2c0-0.1,0-0.1-0.1-0.2
			c0,0,0-0.1,0-0.1l0-0.1c0-0.1,0-0.1,0-0.2c0-0.1,0-0.1,0-0.2c0,0,0-0.1,0-0.1l0-0.1c0-0.1,0-0.1,0-0.2c0-0.1,0-0.1,0-0.2l0-0.1
			c0,0,0-0.1,0-0.1c0-0.1,0-0.1,0-0.2c0-0.1,0-0.1,0-0.2c0-0.1,0.1-0.3,0.1-0.4c0.1-0.5,0.4-0.9,0.6-1.3c0.3-0.4,0.6-0.6,0.9-0.8
			c0.3-0.2,0.6-0.3,0.9-0.4c0,0,0.1,0,0.1,0c0,0,0.1,0,0.1,0c0.1,0,0.1,0,0.2,0c0.1,0,0.3,0,0.4,0c0.1,0,0.2,0,0.3,0
			c0,0,0.1,0,0.1,0c0.6-0.2,1.4,0.1,1.7,0.7c0.3,0.7,0,1.5-0.7,1.9c-0.7,0.3-1.5,0-1.9-0.7c-0.3-0.5-0.1-1.2,0.3-1.6
			c0,0-0.1,0-0.1,0c-0.1,0-0.1,0-0.2,0.1c0,0-0.1,0-0.1,0c0,0-0.1,0-0.1,0c-0.3,0.1-0.5,0.2-0.8,0.4c-0.3,0.2-0.5,0.5-0.7,0.8
			c-0.2,0.3-0.4,0.7-0.5,1.1c0,0.1,0,0.2-0.1,0.3c0,0.1,0,0.1,0,0.2c0,0.1,0,0.1,0,0.2c0,0,0,0.1,0,0.1l0,0.1c0,0.1,0,0.1,0,0.2
			c0,0.1,0,0.1,0,0.2l0,0.1c0,0,0,0.1,0,0.1c0,0.1,0,0.1,0,0.2c0,0.1,0,0.1,0,0.2l0,0.1c0,0,0,0.1,0,0.1c0,0.1,0,0.1,0.1,0.2
			c0,0.1,0,0.1,0.1,0.2l0,0.1l0,0.1c0,0.1,0.1,0.1,0.1,0.2c0,0.1,0.1,0.1,0.1,0.2c0,0,0,0.1,0.1,0.1l0.1,0.1c0,0.1,0.1,0.1,0.1,0.2
			c0,0,0.1,0.1,0.1,0.1c0,0,0,0,0.1,0.1l0.1,0.1c0,0,0.1,0.1,0.1,0.1c0.1,0,0.1,0.1,0.2,0.1l0.1,0.1l0.1,0.1c0.1,0,0.1,0.1,0.2,0.1
			c0.9,0.6,2.2,0.9,3.4,0.8c0.1,0,0.2,0,0.2,0c0.1,0,0.2,0,0.2,0c0.2,0,0.3,0,0.5-0.1c0.3-0.1,0.6-0.1,1-0.2
			c0.6-0.2,1.3-0.5,1.9-0.8c0.3-0.2,0.6-0.4,0.8-0.6c0.3-0.2,0.5-0.5,0.7-0.7l0.1-0.1l0.1-0.1c0.1-0.1,0.1-0.1,0.1-0.2l0.1-0.1
			c0,0,0-0.1,0.1-0.1c0-0.1,0.1-0.2,0.1-0.2c0.2-0.3,0.3-0.6,0.4-1c0.1-0.3,0.2-0.7,0.2-1.1c0-0.4,0-0.8-0.1-1.3
			c-0.1-0.4-0.3-0.9-0.5-1.3c-0.1-0.1-0.1-0.2-0.2-0.3c-0.1-0.1-0.1-0.2-0.2-0.3c-0.2-0.2-0.3-0.4-0.5-0.6c-0.2-0.2-0.4-0.4-0.6-0.6
			c-0.2-0.2-0.5-0.4-0.7-0.5c-0.3-0.2-0.5-0.3-0.8-0.4c-0.1-0.1-0.3-0.1-0.4-0.2c-0.1,0-0.1-0.1-0.2-0.1c-0.1,0-0.2,0-0.2-0.1
			c-0.1,0-0.2,0-0.2-0.1c-0.1,0-0.2,0-0.2-0.1c-0.2,0-0.3-0.1-0.5-0.1c-0.1,0-0.2,0-0.2-0.1c-0.1,0-0.2,0-0.3,0c-0.1,0-0.2,0-0.3,0
			c-0.1,0-0.2,0-0.3,0c-0.2,0-0.3,0-0.5-0.1c-0.2,0-0.3,0-0.5,0c-0.2,0-0.3,0-0.5,0c-0.1,0-0.2,0-0.3,0c-0.1,0-0.2,0-0.3,0
			c-0.1,0-0.2,0-0.3,0c-0.1,0-0.2,0-0.3,0c-0.2,0-0.4,0-0.5,0.1c-0.4,0-0.9,0.1-1.3,0.1c-0.4,0.1-0.8,0.1-1.1,0.1
			c-0.7,0-1.3,0.1-2,0.2c-0.3,0-1.5,0.2-1.5,0.2c0,0,0,0,0,0c-0.5,0.1-0.9,0.3-1.4,0.5c-1.2,0.4-2.6,0.9-3.9,1.4
			c-2.7,1-5.7,2.2-8.9,3.5c-3.2,1.3-6.6,2.7-10.3,4.1c-3.7,1.4-7.5,2.7-11.7,3.8c-0.5,0.1-1,0.3-1.6,0.4c-0.5,0.1-1.1,0.2-1.6,0.4
			c-0.5,0.1-1.1,0.2-1.6,0.3c-0.5,0.1-1.1,0.2-1.6,0.3c-1.1,0.2-2.2,0.3-3.3,0.5c-0.3,0-0.6,0.1-0.8,0.1c-0.3,0-0.6,0-0.9,0.1
			c-0.3,0-0.6,0-0.9,0c-0.3,0-0.6,0-0.9,0c-2.4,0-4.6-0.4-6.8-0.9c-2.2-0.5-4.3-1.3-6.3-2.2c-2-1-3.8-2.2-5.4-3.7
			c-0.8-0.7-1.5-1.6-2.1-2.5l-0.2-0.3l-0.1-0.2l-0.1-0.2c-0.1-0.2-0.3-0.5-0.4-0.7c-0.2-0.5-0.5-1-0.6-1.5c-0.1-0.2-0.2-0.5-0.2-0.8
			c-0.1-0.3-0.1-0.5-0.2-0.8c-0.1-0.5-0.2-1-0.2-1.5C108.8,41.8,108.9,41.3,108.9,40.8z"/>
	</g>
</g>
</svg>
